solid STLEXP Object01
facet normal 0.910416 -0.387302 0.145395
 outer loop
  vertex -8.192756 -5.491869 3.293686
  vertex -1.838267 9.468888 3.356274
  vertex -3.354888 7.999820 8.939571
 endloop
endfacet
facet normal 0.910532 -0.387178 0.145001
 outer loop
  vertex -3.354888 7.999820 8.939571
  vertex -8.150636 -3.192075 9.170048
  vertex -8.192756 -5.491869 3.293686
 endloop
endfacet
facet normal 0.496008 -0.809799 0.313371
 outer loop
  vertex -15.094679 -9.726522 3.275158
  vertex -8.192756 -5.491869 3.293686
  vertex -8.150636 -3.192075 9.170048
 endloop
endfacet
facet normal 0.494358 -0.809977 0.315512
 outer loop
  vertex -8.150636 -3.192075 9.170048
  vertex -14.852462 -8.413563 6.266251
  vertex -15.094679 -9.726522 3.275158
 endloop
endfacet
facet normal -0.546086 -0.749909 0.373399
 outer loop
  vertex -22.217678 -4.508763 3.336941
  vertex -15.094679 -9.726522 3.275158
  vertex -14.852462 -8.413563 6.266251
 endloop
endfacet
facet normal -0.545030 -0.755838 0.362837
 outer loop
  vertex -14.852462 -8.413563 6.266251
  vertex -20.964228 -3.893910 6.500610
  vertex -22.217678 -4.508763 3.336941
 endloop
endfacet
facet normal 0.553301 0.750671 0.361041
 outer loop
  vertex -1.838267 9.468888 3.356274
  vertex -8.689282 14.606230 3.174068
  vertex -9.575968 12.395087 9.130299
 endloop
endfacet
facet normal 0.547881 0.760334 0.348882
 outer loop
  vertex -9.575968 12.395087 9.130299
  vertex -3.354888 7.999820 8.939571
  vertex -1.838267 9.468888 3.356274
 endloop
endfacet
facet normal -0.600594 0.670697 0.435262
 outer loop
  vertex -8.689282 14.606230 3.174068
  vertex -18.700228 5.609077 3.224262
  vertex -17.867996 2.545745 9.092911
 endloop
endfacet
facet normal -0.759312 0.638784 0.124100
 outer loop
  vertex -17.867996 2.545745 9.092911
  vertex -9.575968 12.395087 9.130299
  vertex -8.689282 14.606230 3.174068
 endloop
endfacet
facet normal -0.901322 0.316635 0.295568
 outer loop
  vertex -18.700228 5.609077 3.224262
  vertex -22.217678 -4.508763 3.336941
  vertex -20.964228 -3.893910 6.500610
 endloop
endfacet
facet normal -0.902420 0.315979 0.292908
 outer loop
  vertex -20.964228 -3.893910 6.500610
  vertex -17.867996 2.545745 9.092911
  vertex -18.700228 5.609077 3.224262
 endloop
endfacet
facet normal -0.711952 0.600763 -0.363605
 outer loop
  vertex -9.575968 12.395087 9.130299
  vertex -17.867996 2.545745 9.092911
  vertex -19.180048 1.920461 10.628834
 endloop
endfacet
facet normal -0.669903 0.541569 -0.507872
 outer loop
  vertex -19.180048 1.920461 10.628834
  vertex -9.660763 13.566511 10.491295
  vertex -9.575968 12.395087 9.130299
 endloop
endfacet
facet normal -0.738150 0.606833 0.294769
 outer loop
  vertex -9.660763 13.566511 10.491295
  vertex -19.180048 1.920461 10.628834
  vertex -13.360628 3.061069 22.853483
 endloop
endfacet
facet normal -0.738089 0.606879 0.294827
 outer loop
  vertex -13.360628 3.061069 22.853483
  vertex -6.637414 12.286216 20.695538
  vertex -9.660763 13.566511 10.491295
 endloop
endfacet
facet normal -0.739322 0.606995 0.291480
 outer loop
  vertex -6.637414 12.286216 20.695538
  vertex -13.360628 3.061069 22.853483
  vertex -10.359374 3.673921 29.189749
 endloop
endfacet
facet normal -0.736771 0.608714 0.294340
 outer loop
  vertex -10.359374 3.673921 29.189749
  vertex -4.548373 11.426040 27.703566
  vertex -6.637414 12.286216 20.695538
 endloop
endfacet
facet normal -0.492526 -0.812284 0.312432
 outer loop
  vertex -7.884697 -4.905816 10.772999
  vertex -3.224642 -2.945815 23.214972
  vertex -13.360628 3.061069 22.853483
 endloop
endfacet
facet normal -0.494464 -0.811613 0.311111
 outer loop
  vertex -13.360628 3.061069 22.853483
  vertex -19.180048 1.920461 10.628834
  vertex -7.884697 -4.905816 10.772999
 endloop
endfacet
facet normal -0.400904 -0.676420 -0.617845
 outer loop
  vertex -7.884697 -4.905816 10.772999
  vertex -19.180048 1.920461 10.628834
  vertex -17.867996 2.545745 9.092911
 endloop
endfacet
facet normal -0.385495 -0.661508 -0.643273
 outer loop
  vertex -17.867996 2.545745 9.092911
  vertex -8.150636 -3.192075 9.170048
  vertex -7.884697 -4.905816 10.772999
 endloop
endfacet
facet normal -0.179734 -0.291762 0.939452
 outer loop
  vertex -20.964228 -3.893910 6.500610
  vertex -14.852462 -8.413563 6.266251
  vertex -8.150636 -3.192075 9.170048
 endloop
endfacet
facet normal -0.179734 -0.291762 0.939452
 outer loop
  vertex -8.150636 -3.192075 9.170048
  vertex -17.867996 2.545745 9.092911
  vertex -20.964228 -3.893910 6.500610
 endloop
endfacet
facet normal 0.466480 0.684565 -0.560149
 outer loop
  vertex -3.354888 7.999820 8.939571
  vertex -9.575968 12.395087 9.130299
  vertex -9.660763 13.566511 10.491295
 endloop
endfacet
facet normal 0.473197 0.689042 -0.548914
 outer loop
  vertex -9.660763 13.566511 10.491295
  vertex -2.284056 8.693706 10.733715
  vertex -3.354888 7.999820 8.939571
 endloop
endfacet
facet normal 0.551560 0.832044 -0.059024
 outer loop
  vertex -2.284056 8.693706 10.733715
  vertex -9.660763 13.566511 10.491295
  vertex -6.637414 12.286216 20.695538
 endloop
endfacet
facet normal 0.553911 0.830590 -0.057472
 outer loop
  vertex -6.637414 12.286216 20.695538
  vertex 0.625879 7.501871 21.554899
  vertex -2.284056 8.693706 10.733715
 endloop
endfacet
facet normal 0.790031 -0.348910 -0.504096
 outer loop
  vertex -7.884697 -4.905816 10.772999
  vertex -8.150636 -3.192075 9.170048
  vertex -3.354888 7.999820 8.939571
 endloop
endfacet
facet normal 0.856962 -0.354001 -0.374566
 outer loop
  vertex -3.354888 7.999820 8.939571
  vertex -2.284056 8.693706 10.733715
  vertex -7.884697 -4.905816 10.772999
 endloop
endfacet
facet normal 0.895275 -0.379285 -0.233720
 outer loop
  vertex -3.440602 7.696276 0.095085
  vertex -1.838267 9.468888 3.356274
  vertex -8.192756 -5.491869 3.293686
 endloop
endfacet
facet normal 0.896564 -0.378752 -0.229607
 outer loop
  vertex -8.192756 -5.491869 3.293686
  vertex -8.301997 -3.809800 0.092445
  vertex -3.440602 7.696276 0.095085
 endloop
endfacet
facet normal 0.474961 -0.772237 -0.421974
 outer loop
  vertex -14.845094 -7.837749 0.099121
  vertex -8.301997 -3.809800 0.092445
  vertex -8.192756 -5.491869 3.293686
 endloop
endfacet
facet normal 0.474952 -0.772263 -0.421937
 outer loop
  vertex -8.192756 -5.491869 3.293686
  vertex -15.094679 -9.726522 3.275158
  vertex -14.845094 -7.837749 0.099121
 endloop
endfacet
facet normal -0.525809 -0.712301 -0.464922
 outer loop
  vertex -22.217678 -4.508763 3.336941
  vertex -20.687532 -3.523422 0.096775
  vertex -14.845094 -7.837749 0.099121
 endloop
endfacet
facet normal -0.525809 -0.712301 -0.464922
 outer loop
  vertex -14.845094 -7.837749 0.099121
  vertex -15.094679 -9.726522 3.275158
  vertex -22.217678 -4.508763 3.336941
 endloop
endfacet
facet normal 0.494405 0.638402 -0.589920
 outer loop
  vertex -8.689282 14.606230 3.174068
  vertex -1.838267 9.468888 3.356274
  vertex -3.440602 7.696276 0.095085
 endloop
endfacet
facet normal 0.496936 0.639058 -0.587077
 outer loop
  vertex -3.440602 7.696276 0.095085
  vertex -9.596420 12.485020 0.097191
  vertex -8.689282 14.606230 3.174068
 endloop
endfacet
facet normal -0.638415 0.708675 -0.300343
 outer loop
  vertex -18.700228 5.609077 3.224262
  vertex -8.689282 14.606230 3.174068
  vertex -9.596420 12.485020 0.097191
 endloop
endfacet
facet normal -0.638415 0.708675 -0.300344
 outer loop
  vertex -9.596420 12.485020 0.097191
  vertex -17.707291 5.176442 0.092838
  vertex -18.700228 5.609077 3.224262
 endloop
endfacet
facet normal -0.894421 0.306247 -0.325921
 outer loop
  vertex -18.700228 5.609077 3.224262
  vertex -17.707291 5.176442 0.092838
  vertex -20.687532 -3.523422 0.096775
 endloop
endfacet
facet normal -0.893255 0.306880 -0.328511
 outer loop
  vertex -20.687532 -3.523422 0.096775
  vertex -22.217678 -4.508763 3.336941
  vertex -18.700228 5.609077 3.224262
 endloop
endfacet
facet normal 0.887644 -0.366361 -0.279048
 outer loop
  vertex -7.884697 -4.905816 10.772999
  vertex -2.284056 8.693706 10.733715
  vertex 0.625879 7.501871 21.554899
 endloop
endfacet
facet normal 0.887451 -0.370610 -0.274006
 outer loop
  vertex 0.625879 7.501871 21.554899
  vertex -3.224642 -2.945815 23.214972
  vertex -7.884697 -4.905816 10.772999
 endloop
endfacet
facet normal -0.493058 -0.813409 0.308641
 outer loop
  vertex -13.360628 3.061069 22.853483
  vertex -3.224642 -2.945815 23.214972
  vertex 1.024651 -2.732860 30.564489
 endloop
endfacet
facet normal -0.494264 -0.811173 0.312572
 outer loop
  vertex 1.024651 -2.732860 30.564489
  vertex -10.359374 3.673921 29.189749
  vertex -13.360628 3.061069 22.853483
 endloop
endfacet
facet normal -0.989614 -0.002244 0.143731
 outer loop
  vertex 2.875697 -3.552655 3.282261
  vertex 3.692378 -2.637367 8.919533
  vertex 3.669428 10.378404 8.964687
 endloop
endfacet
facet normal -0.990246 -0.000411 0.139327
 outer loop
  vertex 3.669428 10.378404 8.964687
  vertex 2.875852 12.598588 3.331013
  vertex 2.875697 -3.552655 3.282261
 endloop
endfacet
facet normal -0.812077 -0.542774 0.214306
 outer loop
  vertex 7.282639 -10.231937 3.289406
  vertex 7.282230 -9.022713 6.350471
  vertex 3.692378 -2.637367 8.919533
 endloop
endfacet
facet normal -0.816918 -0.538777 0.205826
 outer loop
  vertex 3.692378 -2.637367 8.919533
  vertex 2.875697 -3.552655 3.282261
  vertex 7.282639 -10.231937 3.289406
 endloop
endfacet
facet normal 0.195897 -0.912031 0.360309
 outer loop
  vertex 7.282230 -9.022713 6.350471
  vertex 7.282639 -10.231937 3.289406
  vertex 15.823720 -8.366322 3.368027
 endloop
endfacet
facet normal 0.196585 -0.911014 0.362502
 outer loop
  vertex 15.823720 -8.366322 3.368027
  vertex 14.814710 -7.506714 6.075512
  vertex 7.282230 -9.022713 6.350471
 endloop
endfacet
facet normal -0.219043 0.896848 0.384296
 outer loop
  vertex 2.875852 12.598588 3.331013
  vertex 3.669428 10.378404 8.964687
  vertex 12.106376 12.405895 9.041977
 endloop
endfacet
facet normal -0.219061 0.896832 0.384324
 outer loop
  vertex 12.106376 12.405895 9.041977
  vertex 11.562249 14.755356 3.249287
  vertex 2.875852 12.598588 3.331013
 endloop
endfacet
facet normal 0.980923 0.193927 -0.013487
 outer loop
  vertex 11.562249 14.755356 3.249287
  vertex 12.106376 12.405895 9.041977
  vertex 14.247602 1.589951 9.255558
 endloop
endfacet
facet normal 0.853250 0.350293 0.386342
 outer loop
  vertex 14.247602 1.589951 9.255558
  vertex 16.780275 2.165305 3.140388
  vertex 11.562249 14.755356 3.249287
 endloop
endfacet
facet normal 0.926172 -0.076138 0.369334
 outer loop
  vertex 14.814710 -7.506714 6.075512
  vertex 15.823720 -8.366322 3.368027
  vertex 16.780275 2.165305 3.140388
 endloop
endfacet
facet normal 0.923815 -0.073736 0.375672
 outer loop
  vertex 16.780275 2.165305 3.140388
  vertex 14.247602 1.589951 9.255558
  vertex 14.814710 -7.506714 6.075512
 endloop
endfacet
facet normal 0.879485 0.150199 -0.451605
 outer loop
  vertex 12.106376 12.405895 9.041977
  vertex 12.556712 13.164236 10.171207
  vertex 14.877868 1.125333 10.687572
 endloop
endfacet
facet normal 0.920803 0.175412 -0.348356
 outer loop
  vertex 14.877868 1.125333 10.687572
  vertex 14.247602 1.589951 9.255558
  vertex 12.106376 12.405895 9.041977
 endloop
endfacet
facet normal 0.976184 0.192495 0.100053
 outer loop
  vertex 12.556712 13.164236 10.171207
  vertex 11.601758 12.555984 20.658564
  vertex 13.627573 1.770609 21.643612
 endloop
endfacet
facet normal 0.976181 0.192504 0.100063
 outer loop
  vertex 13.627573 1.770609 21.643612
  vertex 14.877868 1.125333 10.687572
  vertex 12.556712 13.164236 10.171207
 endloop
endfacet
facet normal 0.976284 0.192036 0.099958
 outer loop
  vertex 11.601758 12.555984 20.658564
  vertex 10.728874 11.999684 30.252762
  vertex 12.853602 2.166402 28.392052
 endloop
endfacet
facet normal 0.976114 0.192536 0.100657
 outer loop
  vertex 12.853602 2.166402 28.392052
  vertex 13.627573 1.770609 21.643612
  vertex 11.601758 12.555984 20.658564
 endloop
endfacet
facet normal 0.396202 -0.912804 0.099054
 outer loop
  vertex 13.627573 1.770609 21.643612
  vertex 3.549550 -2.494655 22.648945
  vertex 3.216609 -3.961223 10.465958
 endloop
endfacet
facet normal 0.396268 -0.912784 0.098982
 outer loop
  vertex 3.216609 -3.961223 10.465958
  vertex 14.877868 1.125333 10.687572
  vertex 13.627573 1.770609 21.643612
 endloop
endfacet
facet normal 0.324300 -0.765581 -0.555622
 outer loop
  vertex 3.216609 -3.961223 10.465958
  vertex 3.692378 -2.637367 8.919533
  vertex 14.247602 1.589951 9.255558
 endloop
endfacet
facet normal 0.367902 -0.824726 -0.429506
 outer loop
  vertex 14.247602 1.589951 9.255558
  vertex 14.877868 1.125333 10.687572
  vertex 3.216609 -3.961223 10.465958
 endloop
endfacet
facet normal 0.099334 -0.322844 0.941225
 outer loop
  vertex 14.814710 -7.506714 6.075512
  vertex 14.247602 1.589951 9.255558
  vertex 3.692378 -2.637367 8.919533
 endloop
endfacet
facet normal 0.099334 -0.322844 0.941225
 outer loop
  vertex 3.692378 -2.637367 8.919533
  vertex 7.282230 -9.022713 6.350471
  vertex 14.814710 -7.506714 6.075512
 endloop
endfacet
facet normal -0.176687 0.807437 -0.562874
 outer loop
  vertex 3.669428 10.378404 8.964687
  vertex 2.943328 11.176342 10.337246
  vertex 12.556712 13.164236 10.171207
 endloop
endfacet
facet normal -0.199402 0.848457 -0.490264
 outer loop
  vertex 12.556712 13.164236 10.171207
  vertex 12.106376 12.405895 9.041977
  vertex 3.669428 10.378404 8.964687
 endloop
endfacet
facet normal -0.201715 0.978691 0.038395
 outer loop
  vertex 2.943328 11.176342 10.337246
  vertex 3.450116 10.622005 27.129747
  vertex 11.601758 12.555984 20.658564
 endloop
endfacet
facet normal -0.201715 0.978692 0.038395
 outer loop
  vertex 11.601758 12.555984 20.658564
  vertex 12.556712 13.164236 10.171207
  vertex 2.943328 11.176342 10.337246
 endloop
endfacet
facet normal -0.201715 0.978692 0.038395
 outer loop
  vertex 10.728874 11.999684 30.252762
  vertex 11.601758 12.555984 20.658564
  vertex 3.450116 10.622005 27.129747
 endloop
endfacet
facet normal -0.950713 -0.019794 -0.309439
 outer loop
  vertex 3.692378 -2.637367 8.919533
  vertex 3.216609 -3.961223 10.465958
  vertex 2.943328 11.176342 10.337246
 endloop
endfacet
facet normal -0.883919 0.000064 -0.467641
 outer loop
  vertex 2.943328 11.176342 10.337246
  vertex 3.669428 10.378404 8.964687
  vertex 3.692378 -2.637367 8.919533
 endloop
endfacet
facet normal -0.952767 0.001610 -0.303698
 outer loop
  vertex 3.915343 10.509007 0.095226
  vertex 3.892883 -3.018476 0.093956
  vertex 2.875697 -3.552655 3.282261
 endloop
endfacet
facet normal -0.951902 0.000934 -0.306400
 outer loop
  vertex 2.875697 -3.552655 3.282261
  vertex 2.875852 12.598588 3.331013
  vertex 3.915343 10.509007 0.095226
 endloop
endfacet
facet normal -0.785544 -0.518657 -0.337514
 outer loop
  vertex 7.556802 -8.567931 0.094234
  vertex 7.282639 -10.231937 3.289406
  vertex 2.875697 -3.552655 3.282261
 endloop
endfacet
facet normal -0.785544 -0.518657 -0.337515
 outer loop
  vertex 2.875697 -3.552655 3.282261
  vertex 3.892883 -3.018476 0.093956
  vertex 7.556802 -8.567931 0.094234
 endloop
endfacet
facet normal 0.195519 -0.876586 -0.439738
 outer loop
  vertex 15.823720 -8.366322 3.368027
  vertex 7.282639 -10.231937 3.289406
  vertex 7.556802 -8.567931 0.094234
 endloop
endfacet
facet normal 0.195011 -0.877364 -0.438409
 outer loop
  vertex 7.556802 -8.567931 0.094234
  vertex 14.856524 -6.946862 0.097111
  vertex 15.823720 -8.366322 3.368027
 endloop
endfacet
facet normal -0.203418 0.792931 -0.574352
 outer loop
  vertex 11.562249 14.755356 3.249287
  vertex 11.425978 12.437046 0.096970
  vertex 3.915343 10.509007 0.095226
 endloop
endfacet
facet normal -0.202041 0.791883 -0.576281
 outer loop
  vertex 3.915343 10.509007 0.095226
  vertex 2.875852 12.598588 3.331013
  vertex 11.562249 14.755356 3.249287
 endloop
endfacet
facet normal 0.877556 0.365487 -0.310345
 outer loop
  vertex 16.780275 2.165305 3.140388
  vertex 15.746052 2.063427 0.095955
  vertex 11.425978 12.437046 0.096970
 endloop
endfacet
facet normal 0.878079 0.366586 -0.307557
 outer loop
  vertex 11.425978 12.437046 0.096970
  vertex 11.562249 14.755356 3.249287
  vertex 16.780275 2.165305 3.140388
 endloop
endfacet
facet normal 0.943200 -0.092565 -0.319070
 outer loop
  vertex 16.780275 2.165305 3.140388
  vertex 15.823720 -8.366322 3.368027
  vertex 14.856524 -6.946862 0.097111
 endloop
endfacet
facet normal 0.943681 -0.093204 -0.317458
 outer loop
  vertex 14.856524 -6.946862 0.097111
  vertex 15.746052 2.063427 0.095955
  vertex 16.780275 2.165305 3.140388
 endloop
endfacet
facet normal -0.999411 -0.017631 0.029435
 outer loop
  vertex 3.216609 -3.961223 10.465958
  vertex 3.549550 -2.494655 22.648945
  vertex 3.450116 10.622005 27.129747
 endloop
endfacet
facet normal -0.999404 -0.017791 0.029574
 outer loop
  vertex 3.450116 10.622005 27.129747
  vertex 2.943328 11.176342 10.337246
  vertex 3.216609 -3.961223 10.465958
 endloop
endfacet
facet normal 0.396199 -0.912815 0.098976
 outer loop
  vertex 3.549550 -2.494655 22.648945
  vertex 13.627573 1.770609 21.643612
  vertex 12.853602 2.166402 28.392052
 endloop
endfacet
facet normal 0.396229 -0.912807 0.098920
 outer loop
  vertex 12.853602 2.166402 28.392052
  vertex 1.024651 -2.732860 30.564489
  vertex 3.549550 -2.494655 22.648945
 endloop
endfacet
facet normal 0.049881 0.859391 -0.508881
 outer loop
  vertex 3.450116 10.622005 27.129747
  vertex -4.548373 11.426040 27.703566
  vertex -4.487047 17.066816 37.235638
 endloop
endfacet
facet normal 0.050552 0.859589 -0.508480
 outer loop
  vertex -4.487047 17.066816 37.235638
  vertex 1.519500 16.766924 37.325829
  vertex 3.450116 10.622005 27.129747
 endloop
endfacet
facet normal -0.787398 0.529826 -0.315101
 outer loop
  vertex -4.548373 11.426040 27.703566
  vertex -10.359374 3.673921 29.189749
  vertex -12.432971 4.856446 36.359768
 endloop
endfacet
facet normal -0.786262 0.533965 -0.310925
 outer loop
  vertex -12.432971 4.856446 36.359768
  vertex -4.487047 17.066816 37.235638
  vertex -4.548373 11.426040 27.703566
 endloop
endfacet
facet normal -0.908368 -0.365954 -0.202348
 outer loop
  vertex -8.443942 -5.795634 37.717167
  vertex -12.432971 4.856446 36.359768
  vertex -10.359374 3.673921 29.189749
 endloop
endfacet
facet normal 0.839725 -0.420119 -0.344038
 outer loop
  vertex 16.020561 2.437760 35.790565
  vertex 11.902264 -6.733971 36.938644
  vertex 12.853602 2.166402 28.392052
 endloop
endfacet
facet normal 0.043149 0.953725 0.297570
 outer loop
  vertex 1.519500 16.766924 37.325829
  vertex -4.487047 17.066816 37.235638
  vertex -5.708866 13.697386 48.211987
 endloop
endfacet
facet normal 0.044809 0.953338 0.298563
 outer loop
  vertex -5.708866 13.697386 48.211987
  vertex 1.442542 13.419747 48.025215
  vertex 1.519500 16.766924 37.325829
 endloop
endfacet
facet normal 0.044037 0.953372 0.298568
 outer loop
  vertex 1.519500 16.766924 37.325829
  vertex 1.442542 13.419747 48.025215
  vertex 9.306782 12.974643 48.286564
 endloop
endfacet
facet normal 0.044037 0.953372 0.298568
 outer loop
  vertex 9.306782 12.974643 48.286564
  vertex 9.125359 16.375692 37.453262
  vertex 1.519500 16.766924 37.325829
 endloop
endfacet
facet normal 0.157634 -0.692681 -0.703807
 outer loop
  vertex 1.024651 -2.732860 30.564489
  vertex 12.853602 2.166402 28.392052
  vertex 11.902264 -6.733971 36.938644
 endloop
endfacet
facet normal 0.156520 -0.694013 -0.702743
 outer loop
  vertex 11.902264 -6.733971 36.938644
  vertex 0.975277 -9.649576 37.384293
  vertex 1.024651 -2.732860 30.564489
 endloop
endfacet
facet normal -0.297850 -0.669155 -0.680821
 outer loop
  vertex 1.024651 -2.732860 30.564489
  vertex 0.975277 -9.649576 37.384293
  vertex -8.443942 -5.795634 37.717167
 endloop
endfacet
facet normal -0.295916 -0.671563 -0.679291
 outer loop
  vertex -8.443942 -5.795634 37.717167
  vertex -10.359374 3.673921 29.189749
  vertex 1.024651 -2.732860 30.564489
 endloop
endfacet
facet normal -0.838318 0.540333 0.072551
 outer loop
  vertex -12.432971 4.856446 36.359768
  vertex -12.089808 4.242468 44.897686
  vertex -5.708866 13.697386 48.211987
 endloop
endfacet
facet normal -0.838318 0.540333 0.072551
 outer loop
  vertex -5.708866 13.697386 48.211987
  vertex -4.487047 17.066816 37.235638
  vertex -12.432971 4.856446 36.359768
 endloop
endfacet
facet normal 0.893533 0.434327 0.113839
 outer loop
  vertex 9.306782 12.974643 48.286564
  vertex 15.058764 2.065448 44.760307
  vertex 16.020561 2.437760 35.790565
 endloop
endfacet
facet normal 0.895480 0.428733 0.119602
 outer loop
  vertex 16.020561 2.437760 35.790565
  vertex 9.125359 16.375692 37.453262
  vertex 9.306782 12.974643 48.286564
 endloop
endfacet
facet normal 0.041019 0.954766 0.294517
 outer loop
  vertex 1.735783 11.695461 53.487862
  vertex 9.329735 10.093913 57.622120
  vertex 9.306782 12.974643 48.286564
 endloop
endfacet
facet normal 0.044037 0.953372 0.298568
 outer loop
  vertex 9.306782 12.974643 48.286564
  vertex 1.442542 13.419747 48.025215
  vertex 1.735783 11.695461 53.487862
 endloop
endfacet
facet normal -0.815019 0.404669 0.414712
 outer loop
  vertex -6.331385 11.943127 48.700348
  vertex -5.708866 13.697386 48.211987
  vertex -12.089808 4.242468 44.897686
 endloop
endfacet
facet normal 0.299032 0.683128 0.666270
 outer loop
  vertex -6.196243 10.604033 58.166920
  vertex 1.604383 11.105964 54.151249
  vertex 1.735783 11.695461 53.487862
 endloop
endfacet
facet normal -0.185354 0.752500 0.631971
 outer loop
  vertex 1.735783 11.695461 53.487862
  vertex 1.604383 11.105964 54.151249
  vertex 9.329735 10.093913 57.622120
 endloop
endfacet
facet normal 0.554197 0.829973 -0.063330
 outer loop
  vertex -6.637414 12.286216 20.695538
  vertex -4.548373 11.426040 27.703566
  vertex 0.625879 7.501871 21.554899
 endloop
endfacet
facet normal 0.050127 0.860491 -0.506994
 outer loop
  vertex 3.450116 10.622005 27.129747
  vertex 0.625879 7.501871 21.554899
  vertex -4.548373 11.426040 27.703566
 endloop
endfacet
facet normal 0.976231 0.191866 0.100798
 outer loop
  vertex 10.728874 11.999684 30.252762
  vertex 9.125359 16.375692 37.453262
  vertex 12.853602 2.166402 28.392052
 endloop
endfacet
facet normal 0.816133 0.447380 -0.365757
 outer loop
  vertex 16.020561 2.437760 35.790565
  vertex 12.853602 2.166402 28.392052
  vertex 9.125359 16.375692 37.453262
 endloop
endfacet
facet normal 0.895818 -0.369414 -0.247071
 outer loop
  vertex 0.625879 7.501871 21.554899
  vertex 3.450116 10.622005 27.129747
  vertex -3.224642 -2.945815 23.214972
 endloop
endfacet
facet normal 0.835982 -0.274097 -0.475400
 outer loop
  vertex 1.024651 -2.732860 30.564489
  vertex -3.224642 -2.945815 23.214972
  vertex 3.450116 10.622005 27.129747
 endloop
endfacet
facet normal -0.949200 0.095257 -0.299909
 outer loop
  vertex 3.549550 -2.494655 22.648945
  vertex 1.024651 -2.732860 30.564489
  vertex 3.450116 10.622005 27.129747
 endloop
endfacet
facet normal 0.755228 0.196029 0.625463
 outer loop
  vertex 15.058764 2.065448 44.760307
  vertex 9.306782 12.974643 48.286564
  vertex 9.816846 10.858027 48.334053
 endloop
endfacet
facet normal 0.912983 -0.399703 0.081849
 outer loop
  vertex 11.207879 -7.076367 43.012081
  vertex 11.902264 -6.733971 36.938644
  vertex 16.020561 2.437760 35.790565
 endloop
endfacet
facet normal 0.912870 -0.400079 0.081278
 outer loop
  vertex 16.020561 2.437760 35.790565
  vertex 15.058764 2.065448 44.760307
  vertex 11.207879 -7.076367 43.012081
 endloop
endfacet
facet normal 0.969413 0.235185 0.070189
 outer loop
  vertex 9.329735 10.093913 57.622120
  vertex 9.816846 10.858027 48.334053
  vertex 9.306782 12.974643 48.286564
 endloop
endfacet
facet normal 0.698330 -0.095405 0.709390
 outer loop
  vertex 9.329735 10.093913 57.622120
  vertex 7.984145 -1.779913 57.349838
  vertex 10.791691 -1.500138 54.623692
 endloop
endfacet
facet normal 0.044807 0.953376 0.298441
 outer loop
  vertex 1.442542 13.419747 48.025215
  vertex -5.708866 13.697386 48.211987
  vertex -6.196243 10.604033 58.166920
 endloop
endfacet
facet normal 0.044913 0.953348 0.298514
 outer loop
  vertex -6.196243 10.604033 58.166920
  vertex 1.735783 11.695461 53.487862
  vertex 1.442542 13.419747 48.025215
 endloop
endfacet
facet normal -0.934930 0.349239 0.062748
 outer loop
  vertex -6.196243 10.604033 58.166920
  vertex -5.708866 13.697386 48.211987
  vertex -6.331385 11.943127 48.700348
 endloop
endfacet
facet normal -0.752668 -0.135926 0.644216
 outer loop
  vertex -6.416503 -0.149519 55.640644
  vertex -4.633064 -1.813291 57.373276
  vertex -6.196243 10.604033 58.166920
 endloop
endfacet
facet normal -0.825954 -0.216666 -0.520437
 outer loop
  vertex -8.516079 -5.428825 43.193947
  vertex -12.788728 -10.005069 51.879967
  vertex -16.992142 -0.199377 54.468685
 endloop
endfacet
facet normal -0.825879 -0.213224 -0.521977
 outer loop
  vertex -16.992142 -0.199377 54.468685
  vertex -12.089808 4.242468 44.897686
  vertex -8.516079 -5.428825 43.193947
 endloop
endfacet
facet normal -0.235778 -0.823266 -0.516375
 outer loop
  vertex 2.298398 -13.558320 53.844402
  vertex 1.196538 -12.489221 52.643028
  vertex 2.320989 -9.536979 47.422787
 endloop
endfacet
facet normal -0.417316 -0.769545 -0.483372
 outer loop
  vertex 2.320989 -9.536979 47.422787
  vertex 3.184331 -9.293964 46.290539
  vertex 2.298398 -13.558320 53.844402
 endloop
endfacet
facet normal 0.108736 -0.865353 -0.489225
 outer loop
  vertex 9.241336 -12.942447 55.042336
  vertex 3.638247 -12.848262 53.630386
  vertex 4.309223 -9.013348 46.996231
 endloop
endfacet
facet normal 0.106628 -0.866130 -0.488313
 outer loop
  vertex 4.309223 -9.013348 46.996231
  vertex 10.623014 -10.955476 51.819710
  vertex 9.241336 -12.942447 55.042336
 endloop
endfacet
facet normal 0.801896 -0.235145 -0.549245
 outer loop
  vertex 15.058764 2.065448 44.760307
  vertex 19.631081 -0.978966 52.739265
  vertex 15.541455 -10.468923 50.831314
 endloop
endfacet
facet normal 0.803778 -0.233980 -0.546987
 outer loop
  vertex 15.541455 -10.468923 50.831314
  vertex 11.207879 -7.076367 43.012081
  vertex 15.058764 2.065448 44.760307
 endloop
endfacet
facet normal -0.054924 0.995360 0.079006
 outer loop
  vertex 12.999036 10.296387 57.622120
  vertex 9.816846 10.858027 48.334053
  vertex 9.329735 10.093913 57.622120
 endloop
endfacet
facet normal 0.194777 0.633418 0.748895
 outer loop
  vertex -6.416503 -0.149519 55.640644
  vertex -5.792431 -3.683580 58.467449
  vertex -0.144962 -3.339999 56.708019
 endloop
endfacet
facet normal -0.619528 0.086716 0.780170
 outer loop
  vertex -6.727722 -10.380009 58.469051
  vertex -5.792431 -3.683580 58.467449
  vertex -9.000007 0.255719 55.482483
 endloop
endfacet
facet normal -0.691570 0.054499 0.720250
 outer loop
  vertex -9.000007 0.255719 55.482483
  vertex -12.557806 -7.580512 52.659294
  vertex -6.727722 -10.380009 58.469051
 endloop
endfacet
facet normal -0.412013 -0.910823 -0.025435
 outer loop
  vertex -6.727722 -10.380009 58.469051
  vertex -12.557806 -7.580512 52.659294
  vertex -7.122697 -10.034512 52.494987
 endloop
endfacet
facet normal 0.325289 -0.942583 -0.075659
 outer loop
  vertex -7.122697 -10.034512 52.494987
  vertex -1.436448 -8.168809 53.698994
  vertex -1.032090 -8.270663 56.706417
 endloop
endfacet
facet normal 0.325512 -0.942476 -0.076027
 outer loop
  vertex -1.032090 -8.270663 56.706417
  vertex -6.727722 -10.380009 58.469051
  vertex -7.122697 -10.034512 52.494987
 endloop
endfacet
facet normal -0.452601 -0.891185 0.030671
 outer loop
  vertex 0.912143 -9.232021 57.463272
  vertex -1.032090 -8.270663 56.706417
  vertex -1.436448 -8.168809 53.698994
 endloop
endfacet
facet normal -0.547319 -0.830052 0.107034
 outer loop
  vertex -1.436448 -8.168809 53.698994
  vertex 0.015988 -9.145000 53.555637
  vertex 0.912143 -9.232021 57.463272
 endloop
endfacet
facet normal -0.324549 0.058086 0.944083
 outer loop
  vertex 1.683254 -5.400298 57.463272
  vertex -0.144962 -3.339999 56.708019
  vertex -1.032090 -8.270663 56.706417
 endloop
endfacet
facet normal -0.333000 0.067014 0.940542
 outer loop
  vertex -1.032090 -8.270663 56.706417
  vertex 0.912143 -9.232021 57.463272
  vertex 1.683254 -5.400298 57.463272
 endloop
endfacet
facet normal 0.944488 -0.242198 -0.221997
 outer loop
  vertex 0.912143 -9.232021 57.463272
  vertex 0.015988 -9.145000 53.555637
  vertex 1.912361 -3.536406 55.504814
 endloop
endfacet
facet normal 0.977738 -0.196764 -0.072884
 outer loop
  vertex 1.912361 -3.536406 55.504814
  vertex 1.683254 -5.400298 57.463272
  vertex 0.912143 -9.232021 57.463272
 endloop
endfacet
facet normal 0.299491 -0.041602 0.953192
 outer loop
  vertex -0.144962 -3.339999 56.708019
  vertex -5.792431 -3.683580 58.467449
  vertex -6.727722 -10.380009 58.469051
 endloop
endfacet
facet normal 0.314317 -0.056860 0.947614
 outer loop
  vertex -6.727722 -10.380009 58.469051
  vertex -1.032090 -8.270663 56.706417
  vertex -0.144962 -3.339999 56.708019
 endloop
endfacet
facet normal 0.316258 -0.328522 0.889974
 outer loop
  vertex 2.298398 -13.558320 53.844402
  vertex 3.638247 -12.848262 53.630386
  vertex 4.763411 -4.417547 56.342636
 endloop
endfacet
facet normal 0.309062 -0.327385 0.892916
 outer loop
  vertex 4.763411 -4.417547 56.342636
  vertex 2.858275 -4.697325 56.899475
  vertex 2.298398 -13.558320 53.844402
 endloop
endfacet
facet normal -0.262186 -0.278644 0.923913
 outer loop
  vertex 9.241336 -12.942447 55.042336
  vertex 7.752678 -4.187009 57.260452
  vertex 4.763411 -4.417547 56.342636
 endloop
endfacet
facet normal -0.239640 -0.268200 0.933082
 outer loop
  vertex 4.763411 -4.417547 56.342636
  vertex 3.638247 -12.848262 53.630386
  vertex 9.241336 -12.942447 55.042336
 endloop
endfacet
facet normal 0.522720 -0.134816 0.841777
 outer loop
  vertex 9.241336 -12.942447 55.042336
  vertex 15.840226 -6.352680 52.000000
  vertex 13.833039 -0.777591 54.139297
 endloop
endfacet
facet normal 0.509150 -0.129013 0.850953
 outer loop
  vertex 13.833039 -0.777591 54.139297
  vertex 7.752678 -4.187009 57.260452
  vertex 9.241336 -12.942447 55.042336
 endloop
endfacet
facet normal 0.654974 -0.735638 -0.172756
 outer loop
  vertex 15.840226 -6.352680 52.000000
  vertex 9.241336 -12.942447 55.042336
  vertex 10.623014 -10.955476 51.819710
 endloop
endfacet
facet normal -0.217059 0.840917 0.495726
 outer loop
  vertex 7.752678 -4.187009 57.260452
  vertex 13.833039 -0.777591 54.139297
  vertex 4.763411 -4.417547 56.342636
 endloop
endfacet
facet normal -0.104391 -0.294805 0.949838
 outer loop
  vertex -9.000007 0.255719 55.482483
  vertex -6.416503 -0.149519 55.640644
  vertex -9.797309 9.237893 58.182686
 endloop
endfacet
facet normal -0.103712 -0.294770 0.949923
 outer loop
  vertex -9.000007 0.255719 55.482483
  vertex -9.797309 9.237893 58.182686
  vertex -16.992142 -0.199377 54.468685
 endloop
endfacet
facet normal -0.103679 -0.295122 0.949818
 outer loop
  vertex -12.557806 -7.580512 52.659294
  vertex -9.000007 0.255719 55.482483
  vertex -16.992142 -0.199377 54.468685
 endloop
endfacet
facet normal -0.104102 -0.295348 0.949701
 outer loop
  vertex -12.788728 -10.005069 51.879967
  vertex -12.557806 -7.580512 52.659294
  vertex -16.992142 -0.199377 54.468685
 endloop
endfacet
facet normal 0.000054 -0.000471 -1.000000
 outer loop
  vertex -14.845094 -7.837749 0.099121
  vertex -20.687532 -3.523422 0.096775
  vertex -17.707291 5.176442 0.092838
 endloop
endfacet
facet normal -0.000637 -0.000623 -1.000000
 outer loop
  vertex -8.301997 -3.809800 0.092445
  vertex -14.845094 -7.837749 0.099121
  vertex -17.707291 5.176442 0.092838
 endloop
endfacet
facet normal 0.000126 0.000176 -1.000000
 outer loop
  vertex -3.440602 7.696276 0.095085
  vertex -8.301997 -3.809800 0.092445
  vertex -17.707291 5.176442 0.092838
 endloop
endfacet
facet normal 0.000065 0.000523 -1.000000
 outer loop
  vertex -3.440602 7.696276 0.095085
  vertex -17.707291 5.176442 0.092838
  vertex -9.596420 12.485020 0.097191
 endloop
endfacet
facet normal 0.000432 -0.000171 -1.000000
 outer loop
  vertex 15.746052 2.063427 0.095955
  vertex 14.856524 -6.946862 0.097111
  vertex 7.556802 -8.567931 0.094234
 endloop
endfacet
facet normal 0.000148 0.000048 -1.000000
 outer loop
  vertex 15.746052 2.063427 0.095955
  vertex 7.556802 -8.567931 0.094234
  vertex 3.892883 -3.018476 0.093956
 endloop
endfacet
facet normal 0.000128 0.000094 -1.000000
 outer loop
  vertex 15.746052 2.063427 0.095955
  vertex 3.892883 -3.018476 0.093956
  vertex 3.915343 10.509007 0.095226
 endloop
endfacet
facet normal 0.000187 0.000176 -1.000000
 outer loop
  vertex 15.746052 2.063427 0.095955
  vertex 3.915343 10.509007 0.095226
  vertex 11.425978 12.437046 0.096970
 endloop
endfacet
facet normal -0.374397 -0.925288 0.060568
 outer loop
  vertex 0.975277 -9.649576 37.384293
  vertex 2.320989 -9.536979 47.422787
  vertex -8.516079 -5.428825 43.193947
 endloop
endfacet
facet normal -0.376345 -0.924726 0.056977
 outer loop
  vertex -8.516079 -5.428825 43.193947
  vertex -8.443942 -5.795634 37.717167
  vertex 0.975277 -9.649576 37.384293
 endloop
endfacet
facet normal -0.937210 -0.348538 0.012605
 outer loop
  vertex -8.516079 -5.428825 43.193947
  vertex -12.089808 4.242468 44.897686
  vertex -12.432971 4.856446 36.359768
 endloop
endfacet
facet normal -0.936893 -0.349441 0.011064
 outer loop
  vertex -12.432971 4.856446 36.359768
  vertex -8.443942 -5.795634 37.717167
  vertex -8.516079 -5.428825 43.193947
 endloop
endfacet
facet normal 0.234688 -0.961492 0.143021
 outer loop
  vertex 1.912361 -3.536406 55.504814
  vertex 10.791691 -1.500138 54.623692
  vertex 7.984145 -1.779913 57.349838
 endloop
endfacet
facet normal 0.385699 -0.690443 -0.611984
 outer loop
  vertex 7.984145 -1.779913 57.349838
  vertex 1.683254 -5.400298 57.463272
  vertex 1.912361 -3.536406 55.504814
 endloop
endfacet
facet normal -0.347002 -0.828895 -0.438775
 outer loop
  vertex -4.633064 -1.813291 57.373276
  vertex -6.416503 -0.149519 55.640644
  vertex -0.144962 -3.339999 56.708019
 endloop
endfacet
facet normal -0.303247 -0.553446 -0.775718
 outer loop
  vertex -0.144962 -3.339999 56.708019
  vertex 1.683254 -5.400298 57.463272
  vertex -4.633064 -1.813291 57.373276
 endloop
endfacet
facet normal -0.771165 0.628310 -0.102620
 outer loop
  vertex -16.992142 -0.199377 54.468685
  vertex -9.797309 9.237893 58.182686
  vertex -6.331385 11.943127 48.700348
 endloop
endfacet
facet normal -0.771316 0.627957 -0.103642
 outer loop
  vertex -6.331385 11.943127 48.700348
  vertex -12.089808 4.242468 44.897686
  vertex -16.992142 -0.199377 54.468685
 endloop
endfacet
facet normal -0.123613 -0.852123 -0.508534
 outer loop
  vertex 2.320989 -9.536979 47.422787
  vertex 1.196538 -12.489221 52.643028
  vertex -12.788728 -10.005069 51.879967
 endloop
endfacet
facet normal -0.123936 -0.851463 -0.509559
 outer loop
  vertex -12.788728 -10.005069 51.879967
  vertex -8.516079 -5.428825 43.193947
  vertex 2.320989 -9.536979 47.422787
 endloop
endfacet
facet normal 0.454819 -0.790192 -0.410775
 outer loop
  vertex 3.184331 -9.293964 46.290539
  vertex 4.309223 -9.013348 46.996231
  vertex 3.638247 -12.848262 53.630386
 endloop
endfacet
facet normal 0.370537 -0.826766 -0.423274
 outer loop
  vertex 3.638247 -12.848262 53.630386
  vertex 2.298398 -13.558320 53.844402
  vertex 3.184331 -9.293964 46.290539
 endloop
endfacet
facet normal 0.009665 -0.915365 -0.402509
 outer loop
  vertex 11.207879 -7.076367 43.012081
  vertex 15.541455 -10.468923 50.831314
  vertex 10.623014 -10.955476 51.819710
 endloop
endfacet
facet normal 0.025151 -0.915497 -0.401538
 outer loop
  vertex 10.623014 -10.955476 51.819710
  vertex 4.309223 -9.013348 46.996231
  vertex 11.207879 -7.076367 43.012081
 endloop
endfacet
facet normal 0.789416 0.566605 -0.236181
 outer loop
  vertex 12.999036 10.296387 57.622120
  vertex 19.631081 -0.978966 52.739265
  vertex 15.058764 2.065448 44.760307
 endloop
endfacet
facet normal 0.789400 0.566622 -0.236194
 outer loop
  vertex 15.058764 2.065448 44.760307
  vertex 9.816846 10.858027 48.334053
  vertex 12.999036 10.296387 57.622120
 endloop
endfacet
facet normal 0.013725 -0.248734 0.968475
 outer loop
  vertex 12.999036 10.296387 57.622120
  vertex 9.329735 10.093913 57.622120
  vertex 10.791691 -1.500138 54.623692
 endloop
endfacet
facet normal 0.215188 -0.278204 0.936107
 outer loop
  vertex 12.999036 10.296387 57.622120
  vertex 10.791691 -1.500138 54.623692
  vertex 13.833039 -0.777591 54.139297
 endloop
endfacet
facet normal 0.216329 -0.278050 0.935890
 outer loop
  vertex 19.631081 -0.978966 52.739265
  vertex 12.999036 10.296387 57.622120
  vertex 13.833039 -0.777591 54.139297
 endloop
endfacet
facet normal 0.216027 -0.281033 0.935068
 outer loop
  vertex 19.631081 -0.978966 52.739265
  vertex 13.833039 -0.777591 54.139297
  vertex 15.840226 -6.352680 52.000000
 endloop
endfacet
facet normal 0.216217 -0.281156 0.934987
 outer loop
  vertex 15.541455 -10.468923 50.831314
  vertex 19.631081 -0.978966 52.739265
  vertex 15.840226 -6.352680 52.000000
 endloop
endfacet
facet normal 0.215728 -0.281153 0.935101
 outer loop
  vertex 15.541455 -10.468923 50.831314
  vertex 15.840226 -6.352680 52.000000
  vertex 10.623014 -10.955476 51.819710
 endloop
endfacet
facet normal 0.051239 0.629317 0.775458
 outer loop
  vertex -6.416503 -0.149519 55.640644
  vertex -9.000007 0.255719 55.482483
  vertex -5.792431 -3.683580 58.467449
 endloop
endfacet
facet normal 0.091314 -0.229515 0.969012
 outer loop
  vertex -6.416503 -0.149519 55.640644
  vertex -6.196243 10.604033 58.166920
  vertex -9.797309 9.237893 58.182686
 endloop
endfacet
facet normal -0.350884 0.926481 0.136064
 outer loop
  vertex -6.196243 10.604033 58.166920
  vertex -6.331385 11.943127 48.700348
  vertex -9.797309 9.237893 58.182686
 endloop
endfacet
facet normal -0.102584 -0.295418 0.949845
 outer loop
  vertex 1.196538 -12.489221 52.643028
  vertex 1.912361 -3.536406 55.504814
  vertex 0.015988 -9.145000 53.555637
 endloop
endfacet
facet normal -0.104391 -0.294805 0.949838
 outer loop
  vertex 0.015988 -9.145000 53.555637
  vertex -1.436448 -8.168809 53.698994
  vertex -7.122697 -10.034512 52.494987
 endloop
endfacet
facet normal -0.104207 -0.295901 0.949517
 outer loop
  vertex 1.196538 -12.489221 52.643028
  vertex 0.015988 -9.145000 53.555637
  vertex -7.122697 -10.034512 52.494987
 endloop
endfacet
facet normal -0.104564 -0.297137 0.949092
 outer loop
  vertex -12.788728 -10.005069 51.879967
  vertex 1.196538 -12.489221 52.643028
  vertex -7.122697 -10.034512 52.494987
 endloop
endfacet
facet normal -0.104616 -0.295287 0.949664
 outer loop
  vertex -12.788728 -10.005069 51.879967
  vertex -7.122697 -10.034512 52.494987
  vertex -12.557806 -7.580512 52.659294
 endloop
endfacet
facet normal -0.055004 0.588793 0.806410
 outer loop
  vertex 10.791691 -1.500138 54.623692
  vertex 1.912361 -3.536406 55.504814
  vertex 4.763411 -4.417547 56.342636
 endloop
endfacet
facet normal 0.033723 0.454709 0.890001
 outer loop
  vertex 4.763411 -4.417547 56.342636
  vertex 13.833039 -0.777591 54.139297
  vertex 10.791691 -1.500138 54.623692
 endloop
endfacet
facet normal -0.858206 -0.092760 0.504855
 outer loop
  vertex 2.858275 -4.697325 56.899475
  vertex 1.912361 -3.536406 55.504814
  vertex 1.196538 -12.489221 52.643028
 endloop
endfacet
facet normal -0.792477 -0.153444 0.590284
 outer loop
  vertex 1.196538 -12.489221 52.643028
  vertex 2.298398 -13.558320 53.844402
  vertex 2.858275 -4.697325 56.899475
 endloop
endfacet
facet normal 0.063404 0.787751 0.612723
 outer loop
  vertex 1.912361 -3.536406 55.504814
  vertex 2.858275 -4.697325 56.899475
  vertex 4.763411 -4.417547 56.342636
 endloop
endfacet
facet normal 0.256769 -0.966147 -0.025111
 outer loop
  vertex 11.207879 -7.076367 43.012081
  vertex 4.309223 -9.013348 46.996231
  vertex 0.975277 -9.649576 37.384293
 endloop
endfacet
facet normal 0.256769 -0.966147 -0.025111
 outer loop
  vertex 0.975277 -9.649576 37.384293
  vertex 11.902264 -6.733971 36.938644
  vertex 11.207879 -7.076367 43.012081
 endloop
endfacet
facet normal 0.256769 -0.966147 -0.025111
 outer loop
  vertex 0.975277 -9.649576 37.384293
  vertex 4.309223 -9.013348 46.996231
  vertex 3.184331 -9.293964 46.290539
 endloop
endfacet
facet normal 0.244215 -0.969475 -0.021864
 outer loop
  vertex 3.184331 -9.293964 46.290539
  vertex 2.320989 -9.536979 47.422787
  vertex 0.975277 -9.649576 37.384293
 endloop
endfacet
facet normal 0.055111 0.859758 -0.507719
 outer loop
  vertex 10.728874 11.999684 30.252762
  vertex 3.450116 10.622005 27.129747
  vertex 1.519500 16.766924 37.325829
 endloop
endfacet
facet normal 0.052707 0.858541 -0.510029
 outer loop
  vertex 1.519500 16.766924 37.325829
  vertex 9.125359 16.375692 37.453262
  vertex 10.728874 11.999684 30.252762
 endloop
endfacet
facet normal 0.247818 0.824151 0.509275
 outer loop
  vertex 9.641750 12.911665 62.489994
  vertex 1.705713 15.693921 61.849274
  vertex 1.655048 14.657516 63.551125
 endloop
endfacet
facet normal 0.247814 0.832750 0.495091
 outer loop
  vertex 1.655048 14.657516 63.551125
  vertex 9.374209 12.304989 63.644348
  vertex 9.641750 12.911665 62.489994
 endloop
endfacet
facet normal 0.265562 0.857080 -0.441464
 outer loop
  vertex 1.655048 14.657516 63.551125
  vertex 1.655048 17.587370 69.239288
  vertex 9.970683 15.381650 69.959244
 endloop
endfacet
facet normal 0.266333 0.856366 -0.442384
 outer loop
  vertex 9.970683 15.381650 69.959244
  vertex 9.374209 12.304989 63.644348
  vertex 1.655048 14.657516 63.551125
 endloop
endfacet
facet normal 0.896912 0.358241 -0.259255
 outer loop
  vertex 9.374209 12.304989 63.644348
  vertex 9.970683 15.381650 69.959244
  vertex 13.190420 8.331497 71.356194
 endloop
endfacet
facet normal 0.896522 0.360008 -0.258152
 outer loop
  vertex 13.190420 8.331497 71.356194
  vertex 11.531274 7.861222 64.938408
  vertex 9.374209 12.304989 63.644348
 endloop
endfacet
facet normal 0.323427 0.809813 -0.489488
 outer loop
  vertex 1.705713 15.693921 61.849274
  vertex 9.641750 12.911665 62.489994
  vertex 9.329735 10.093913 57.622120
 endloop
endfacet
facet normal 0.325110 0.810456 -0.487304
 outer loop
  vertex 9.329735 10.093913 57.622120
  vertex 1.604383 11.105964 54.151249
  vertex 1.705713 15.693921 61.849274
 endloop
endfacet
facet normal 0.373442 0.913139 -0.163455
 outer loop
  vertex 11.531274 7.861222 64.938408
  vertex 13.190420 8.331497 71.356194
  vertex 17.056507 6.666422 70.887032
 endloop
endfacet
facet normal 0.375242 0.912061 -0.165344
 outer loop
  vertex 17.056507 6.666422 70.887032
  vertex 17.157360 5.992083 67.396164
  vertex 11.531274 7.861222 64.938408
 endloop
endfacet
facet normal 0.999165 -0.023526 0.033411
 outer loop
  vertex 17.157360 5.992083 67.396164
  vertex 17.056507 6.666422 70.887032
  vertex 16.950794 3.670470 71.938828
 endloop
endfacet
facet normal 0.999126 -0.027739 0.031256
 outer loop
  vertex 16.950794 3.670470 71.938828
  vertex 17.071531 3.154237 67.621216
  vertex 17.157360 5.992083 67.396164
 endloop
endfacet
facet normal 0.307421 -0.943793 0.121441
 outer loop
  vertex 17.071531 3.154237 67.621216
  vertex 16.950794 3.670470 71.938828
  vertex 13.025035 2.577727 73.384308
 endloop
endfacet
facet normal 0.305984 -0.944396 0.120371
 outer loop
  vertex 13.025035 2.577727 73.384308
  vertex 13.342789 1.404900 63.374897
  vertex 17.071531 3.154237 67.621216
 endloop
endfacet
facet normal 0.896911 0.358240 -0.259259
 outer loop
  vertex 13.190420 8.331497 71.356194
  vertex 9.970683 15.381650 69.959244
  vertex 10.364174 17.382542 74.085335
 endloop
endfacet
facet normal 0.896159 0.358626 -0.261318
 outer loop
  vertex 10.364174 17.382542 74.085335
  vertex 15.456143 7.110515 77.450577
  vertex 13.190420 8.331497 71.356194
 endloop
endfacet
facet normal 0.265569 0.857163 -0.441299
 outer loop
  vertex 9.970683 15.381650 69.959244
  vertex 1.655048 17.587370 69.239288
  vertex 1.655048 20.619299 75.128403
 endloop
endfacet
facet normal 0.265768 0.857231 -0.441048
 outer loop
  vertex 1.655048 20.619299 75.128403
  vertex 10.364174 17.382542 74.085335
  vertex 9.970683 15.381650 69.959244
 endloop
endfacet
facet normal 0.914942 -0.157305 -0.371666
 outer loop
  vertex 13.190420 8.331497 71.356194
  vertex 15.456143 7.110515 77.450577
  vertex 13.025035 2.577727 73.384308
 endloop
endfacet
facet normal 0.316602 -0.914399 -0.252266
 outer loop
  vertex 12.158257 -3.310156 73.742554
  vertex 14.744043 -4.284782 80.520569
  vertex 11.152276 -5.292333 79.664894
 endloop
endfacet
facet normal 0.914942 -0.157306 -0.371666
 outer loop
  vertex 15.456143 7.110515 77.450577
  vertex 14.744043 -4.284782 80.520569
  vertex 12.158257 -3.310156 73.742554
 endloop
endfacet
facet normal 0.914943 -0.157306 -0.371665
 outer loop
  vertex 12.158257 -3.310156 73.742554
  vertex 13.025035 2.577727 73.384308
  vertex 15.456143 7.110515 77.450577
 endloop
endfacet
facet normal 0.249282 0.315561 0.915576
 outer loop
  vertex 13.190420 8.331497 71.356194
  vertex 13.025035 2.577727 73.384308
  vertex 16.950794 3.670470 71.938828
 endloop
endfacet
facet normal 0.246239 0.313305 0.917173
 outer loop
  vertex 16.950794 3.670470 71.938828
  vertex 17.056507 6.666422 70.887032
  vertex 13.190420 8.331497 71.356194
 endloop
endfacet
facet normal 0.432901 0.824825 -0.363675
 outer loop
  vertex 11.531274 7.861222 64.938408
  vertex 17.157360 5.992083 67.396164
  vertex 13.679150 5.988305 63.247307
 endloop
endfacet
facet normal 0.764262 -0.073921 -0.640655
 outer loop
  vertex 17.071531 3.154237 67.621216
  vertex 13.342789 1.404900 63.374897
  vertex 13.679150 5.988305 63.247307
 endloop
endfacet
facet normal 0.764262 -0.073921 -0.640655
 outer loop
  vertex 13.679150 5.988305 63.247307
  vertex 17.157360 5.992083 67.396164
  vertex 17.071531 3.154237 67.621216
 endloop
endfacet
facet normal 0.357369 0.795761 0.488929
 outer loop
  vertex 1.655048 20.619299 75.128403
  vertex 1.655048 17.905359 79.545502
  vertex 9.442386 14.255098 79.794586
 endloop
endfacet
facet normal 0.354395 0.794821 0.492610
 outer loop
  vertex 9.442386 14.255098 79.794586
  vertex 10.364174 17.382542 74.085335
  vertex 1.655048 20.619299 75.128403
 endloop
endfacet
facet normal 0.475792 -0.471221 0.742680
 outer loop
  vertex 1.655048 -8.291543 86.363693
  vertex 14.744043 -4.284782 80.520569
  vertex 9.160389 1.939288 88.046783
 endloop
endfacet
facet normal 0.474093 -0.470253 0.744378
 outer loop
  vertex 9.160389 1.939288 88.046783
  vertex 1.655048 -1.720946 90.514603
  vertex 1.655048 -8.291543 86.363693
 endloop
endfacet
facet normal 0.840069 0.091556 0.534698
 outer loop
  vertex 14.744043 -4.284782 80.520569
  vertex 15.456143 7.110515 77.450577
  vertex 11.253682 8.197083 83.867050
 endloop
endfacet
facet normal 0.832973 0.086400 0.546526
 outer loop
  vertex 11.253682 8.197083 83.867050
  vertex 9.160389 1.939288 88.046783
  vertex 14.744043 -4.284782 80.520569
 endloop
endfacet
facet normal 0.761280 0.508987 0.401728
 outer loop
  vertex 15.456143 7.110515 77.450577
  vertex 10.364174 17.382542 74.085335
  vertex 9.442386 14.255098 79.794586
 endloop
endfacet
facet normal 0.759214 0.503906 0.411915
 outer loop
  vertex 9.442386 14.255098 79.794586
  vertex 11.253682 8.197083 83.867050
  vertex 15.456143 7.110515 77.450577
 endloop
endfacet
facet normal -0.001362 0.065187 0.997872
 outer loop
  vertex 9.442386 14.255098 79.794586
  vertex 1.655048 17.905359 79.545502
  vertex 1.655048 14.236202 79.785194
 endloop
endfacet
facet normal 0.764262 -0.073921 -0.640655
 outer loop
  vertex 13.679150 5.988305 63.247307
  vertex 13.342789 1.404900 63.374897
  vertex 7.984145 -1.779913 57.349838
 endloop
endfacet
facet normal 0.763045 -0.071741 -0.642351
 outer loop
  vertex 7.984145 -1.779913 57.349838
  vertex 9.329735 10.093913 57.622120
  vertex 13.679150 5.988305 63.247307
 endloop
endfacet
facet normal -0.000612 0.559893 0.828565
 outer loop
  vertex 9.160389 1.939288 88.046783
  vertex 1.655048 1.925004 88.050896
  vertex 1.655048 -1.720946 90.514603
 endloop
endfacet
facet normal -0.002348 0.555966 0.831202
 outer loop
  vertex 9.160389 1.939288 88.046783
  vertex 11.253682 8.197083 83.867050
  vertex 1.655048 8.158207 83.865936
 endloop
endfacet
facet normal -0.000606 0.557417 0.830233
 outer loop
  vertex 1.655048 8.158207 83.865936
  vertex 1.655048 1.925004 88.050896
  vertex 9.160389 1.939288 88.046783
 endloop
endfacet
facet normal -0.002354 0.557414 0.830231
 outer loop
  vertex 11.253682 8.197083 83.867050
  vertex 9.442386 14.255098 79.794586
  vertex 1.655048 14.236202 79.785194
 endloop
endfacet
facet normal -0.002354 0.557414 0.830231
 outer loop
  vertex 1.655048 14.236202 79.785194
  vertex 1.655048 8.158207 83.865936
  vertex 11.253682 8.197083 83.867050
 endloop
endfacet
facet normal 0.458235 -0.881507 -0.113865
 outer loop
  vertex 7.924474 -4.385645 67.965363
  vertex 8.118295 -4.805314 71.994324
  vertex 5.361679 -6.195981 71.666779
 endloop
endfacet
facet normal 0.458236 -0.881507 -0.113864
 outer loop
  vertex 5.361679 -6.195981 71.666779
  vertex 5.068120 -5.830913 67.659119
  vertex 7.924474 -4.385645 67.965363
 endloop
endfacet
facet normal 0.340244 -0.935809 -0.092172
 outer loop
  vertex 3.475725 -9.620640 61.969406
  vertex 4.992540 -8.911462 60.368393
  vertex 8.402500 -7.788853 61.558239
 endloop
endfacet
facet normal 0.340244 -0.935809 -0.092172
 outer loop
  vertex 8.402500 -7.788853 61.558239
  vertex 9.511017 -7.535862 63.081642
  vertex 3.475725 -9.620640 61.969406
 endloop
endfacet
facet normal 0.988610 -0.142611 0.048094
 outer loop
  vertex 13.342789 1.404900 63.374897
  vertex 13.025035 2.577727 73.384308
  vertex 12.158257 -3.310156 73.742554
 endloop
endfacet
facet normal 0.989657 -0.133573 0.052324
 outer loop
  vertex 12.158257 -3.310156 73.742554
  vertex 12.660661 -3.735488 63.154289
  vertex 13.342789 1.404900 63.374897
 endloop
endfacet
facet normal 0.764263 -0.073923 -0.640655
 outer loop
  vertex 13.342789 1.404900 63.374897
  vertex 12.660661 -3.735488 63.154289
  vertex 7.984145 -1.779913 57.349838
 endloop
endfacet
facet normal 0.280668 -0.959363 -0.029142
 outer loop
  vertex 14.744043 -4.284782 80.520569
  vertex 1.655048 -8.291543 86.363693
  vertex 1.655048 -8.154501 81.852173
 endloop
endfacet
facet normal 0.279261 -0.959266 -0.042691
 outer loop
  vertex 1.655048 -8.154501 81.852173
  vertex 11.152276 -5.292333 79.664894
  vertex 14.744043 -4.284782 80.520569
 endloop
endfacet
facet normal 0.323272 -0.441551 0.836976
 outer loop
  vertex 1.655048 -8.154501 81.852173
  vertex 1.655048 -13.248959 79.164566
  vertex 11.207483 -7.938830 78.276436
 endloop
endfacet
facet normal 0.324390 -0.434146 0.840410
 outer loop
  vertex 11.207483 -7.938830 78.276436
  vertex 11.152276 -5.292333 79.664894
  vertex 1.655048 -8.154501 81.852173
 endloop
endfacet
facet normal 0.987248 -0.057320 0.148511
 outer loop
  vertex 12.158257 -3.310156 73.742554
  vertex 11.152276 -5.292333 79.664894
  vertex 11.207483 -7.938830 78.276436
 endloop
endfacet
facet normal 0.340244 -0.935809 -0.092171
 outer loop
  vertex 9.511017 -7.535862 63.081642
  vertex 9.768889 -7.646394 65.155785
  vertex 5.394280 -9.194943 64.729546
 endloop
endfacet
facet normal 0.340244 -0.935809 -0.092171
 outer loop
  vertex 5.394280 -9.194943 64.729546
  vertex 3.475725 -9.620640 61.969406
  vertex 9.511017 -7.535862 63.081642
 endloop
endfacet
facet normal 0.487796 -0.870873 0.060302
 outer loop
  vertex 1.656135 -9.125182 74.648453
  vertex 5.547134 -7.046479 73.193672
  vertex 8.666220 -5.281270 73.455627
 endloop
endfacet
facet normal 0.487322 -0.871446 0.055671
 outer loop
  vertex 8.666220 -5.281270 73.455627
  vertex 12.158257 -3.310156 73.742554
  vertex 1.656135 -9.125182 74.648453
 endloop
endfacet
facet normal 0.487023 -0.871396 0.058964
 outer loop
  vertex 9.417057 -5.261710 67.542999
  vertex 12.158257 -3.310156 73.742554
  vertex 8.666220 -5.281270 73.455627
 endloop
endfacet
facet normal 0.488304 -0.870635 0.059615
 outer loop
  vertex 1.656135 -9.125182 74.648453
  vertex 1.655199 -9.506004 69.094460
  vertex 5.304411 -7.591378 67.165642
 endloop
endfacet
facet normal 0.487488 -0.871126 0.059116
 outer loop
  vertex 5.304411 -7.591378 67.165642
  vertex 5.547134 -7.046479 73.193672
  vertex 1.656135 -9.125182 74.648453
 endloop
endfacet
facet normal 0.491431 -0.868716 0.061869
 outer loop
  vertex 9.466151 -5.540528 63.183609
  vertex 12.660661 -3.735488 63.154289
  vertex 9.732323 -5.197357 65.887939
 endloop
endfacet
facet normal 0.087431 -0.307807 0.947423
 outer loop
  vertex 5.304411 -7.591378 67.165642
  vertex 9.417057 -5.261710 67.542999
  vertex 7.924474 -4.385645 67.965363
 endloop
endfacet
facet normal 0.031233 -0.265887 0.963498
 outer loop
  vertex 7.924474 -4.385645 67.965363
  vertex 5.068120 -5.830913 67.659119
  vertex 5.304411 -7.591378 67.165642
 endloop
endfacet
facet normal -0.539052 -0.839255 -0.071230
 outer loop
  vertex 9.417057 -5.261710 67.542999
  vertex 8.666220 -5.281270 73.455627
  vertex 8.118295 -4.805314 71.994324
 endloop
endfacet
facet normal -0.518541 -0.852664 -0.063871
 outer loop
  vertex 8.118295 -4.805314 71.994324
  vertex 7.924474 -4.385645 67.965363
  vertex 9.417057 -5.261710 67.542999
 endloop
endfacet
facet normal 0.463610 -0.748926 -0.473471
 outer loop
  vertex 8.666220 -5.281270 73.455627
  vertex 5.547134 -7.046479 73.193672
  vertex 5.361679 -6.195981 71.666779
 endloop
endfacet
facet normal 0.447552 -0.787233 -0.424219
 outer loop
  vertex 5.361679 -6.195981 71.666779
  vertex 8.118295 -4.805314 71.994324
  vertex 8.666220 -5.281270 73.455627
 endloop
endfacet
facet normal 0.987644 0.147446 -0.053096
 outer loop
  vertex 5.547134 -7.046479 73.193672
  vertex 5.304411 -7.591378 67.165642
  vertex 5.068120 -5.830913 67.659119
 endloop
endfacet
facet normal 0.992691 0.102715 -0.063358
 outer loop
  vertex 5.068120 -5.830913 67.659119
  vertex 5.361679 -6.195981 71.666779
  vertex 5.547134 -7.046479 73.193672
 endloop
endfacet
facet normal 0.487909 -0.870893 0.059077
 outer loop
  vertex 9.732323 -5.197357 65.887939
  vertex 9.417057 -5.261710 67.542999
  vertex 5.304411 -7.591378 67.165642
 endloop
endfacet
facet normal 0.487909 -0.870893 0.059078
 outer loop
  vertex 5.304411 -7.591378 67.165642
  vertex 5.379527 -7.679173 65.251060
  vertex 9.732323 -5.197357 65.887939
 endloop
endfacet
facet normal 0.488369 -0.870698 0.058149
 outer loop
  vertex 12.660661 -3.735488 63.154289
  vertex 12.158257 -3.310156 73.742554
  vertex 9.417057 -5.261710 67.542999
 endloop
endfacet
facet normal 0.489749 -0.869833 0.059469
 outer loop
  vertex 9.417057 -5.261710 67.542999
  vertex 9.732323 -5.197357 65.887939
  vertex 12.660661 -3.735488 63.154289
 endloop
endfacet
facet normal 0.338383 -0.677729 -0.652825
 outer loop
  vertex 1.655048 -13.345902 64.893059
  vertex 1.655048 -10.254683 61.683914
  vertex 3.475725 -9.620640 61.969406
 endloop
endfacet
facet normal 0.337020 -0.677667 -0.653594
 outer loop
  vertex 3.475725 -9.620640 61.969406
  vertex 5.362989 -11.378540 64.765205
  vertex 1.655048 -13.345902 64.893059
 endloop
endfacet
facet normal 0.401585 -0.719909 -0.566092
 outer loop
  vertex 7.984145 -1.779913 57.349838
  vertex 12.660661 -3.735488 63.154289
  vertex 9.466151 -5.540528 63.183609
 endloop
endfacet
facet normal 0.402472 -0.719463 -0.566030
 outer loop
  vertex 9.466151 -5.540528 63.183609
  vertex 6.175643 -4.112017 59.028179
  vertex 7.984145 -1.779913 57.349838
 endloop
endfacet
facet normal 0.822458 -0.021069 -0.568436
 outer loop
  vertex 5.394280 -9.194943 64.729546
  vertex 5.362989 -11.378540 64.765205
  vertex 3.475725 -9.620640 61.969406
 endloop
endfacet
facet normal 0.469346 -0.882328 0.034812
 outer loop
  vertex 1.655048 -13.265862 66.921738
  vertex 1.655048 -13.345902 64.893059
  vertex 5.362989 -11.378540 64.765205
 endloop
endfacet
facet normal 0.475190 -0.878564 0.048153
 outer loop
  vertex 5.362989 -11.378540 64.765205
  vertex 5.281919 -11.286172 67.250511
  vertex 1.655048 -13.265862 66.921738
 endloop
endfacet
facet normal 0.453981 0.001959 0.891009
 outer loop
  vertex 1.655199 -9.506004 69.094460
  vertex 1.655048 -11.480304 69.098877
  vertex 5.281919 -11.286172 67.250511
 endloop
endfacet
facet normal 0.459996 0.017591 0.887747
 outer loop
  vertex 5.281919 -11.286172 67.250511
  vertex 5.304411 -7.591378 67.165642
  vertex 1.655199 -9.506004 69.094460
 endloop
endfacet
facet normal 0.342515 -0.726445 0.595786
 outer loop
  vertex 5.281919 -11.286172 67.250511
  vertex 1.655048 -11.480304 69.098877
  vertex 1.655048 -13.265862 66.921738
 endloop
endfacet
facet normal 0.791154 0.048944 -0.609655
 outer loop
  vertex 6.175643 -4.112017 59.028179
  vertex 9.466151 -5.540528 63.183609
  vertex 9.511017 -7.535862 63.081642
 endloop
endfacet
facet normal 0.800292 0.075368 -0.594855
 outer loop
  vertex 9.511017 -7.535862 63.081642
  vertex 8.402500 -7.788853 61.558239
  vertex 6.175643 -4.112017 59.028179
 endloop
endfacet
facet normal 0.993563 0.045808 -0.103604
 outer loop
  vertex 9.466151 -5.540528 63.183609
  vertex 9.732323 -5.197357 65.887939
  vertex 9.768889 -7.646394 65.155785
 endloop
endfacet
facet normal 0.992141 0.028534 -0.121830
 outer loop
  vertex 9.768889 -7.646394 65.155785
  vertex 9.511017 -7.535862 63.081642
  vertex 9.466151 -5.540528 63.183609
 endloop
endfacet
facet normal 0.046839 -0.324576 0.944699
 outer loop
  vertex 9.732323 -5.197357 65.887939
  vertex 5.379527 -7.679173 65.251060
  vertex 5.394280 -9.194943 64.729546
 endloop
endfacet
facet normal 0.007998 -0.286311 0.958103
 outer loop
  vertex 5.394280 -9.194943 64.729546
  vertex 9.768889 -7.646394 65.155785
  vertex 9.732323 -5.197357 65.887939
 endloop
endfacet
facet normal 0.328530 -0.697506 -0.636831
 outer loop
  vertex 11.207483 -7.938830 78.276436
  vertex 1.655048 -13.248959 79.164566
  vertex 1.656135 -9.125182 74.648453
 endloop
endfacet
facet normal 0.329287 -0.694382 -0.639847
 outer loop
  vertex 1.656135 -9.125182 74.648453
  vertex 12.158257 -3.310156 73.742554
  vertex 11.207483 -7.938830 78.276436
 endloop
endfacet
facet normal 0.999448 -0.005331 0.032800
 outer loop
  vertex 5.304411 -7.591378 67.165642
  vertex 5.281919 -11.286172 67.250511
  vertex 5.362989 -11.378540 64.765205
 endloop
endfacet
facet normal 0.999167 -0.009673 0.039644
 outer loop
  vertex 5.362989 -11.378540 64.765205
  vertex 5.379527 -7.679173 65.251060
  vertex 5.304411 -7.591378 67.165642
 endloop
endfacet
facet normal 0.997691 -0.013209 0.066615
 outer loop
  vertex 5.379527 -7.679173 65.251060
  vertex 5.362989 -11.378540 64.765205
  vertex 5.394280 -9.194943 64.729546
 endloop
endfacet
facet normal -0.033451 -0.655651 -0.754323
 outer loop
  vertex 4.992540 -8.911462 60.368393
  vertex 1.655048 -10.254683 61.683914
  vertex 1.683254 -5.400298 57.463272
 endloop
endfacet
facet normal 0.340324 -0.935788 -0.092086
 outer loop
  vertex 3.475725 -9.620640 61.969406
  vertex 1.655048 -10.254683 61.683914
  vertex 4.992540 -8.911462 60.368393
 endloop
endfacet
facet normal 0.761387 0.492393 0.421710
 outer loop
  vertex 9.374209 12.304989 63.644348
  vertex 11.531274 7.861222 64.938408
  vertex 13.679150 5.988305 63.247307
 endloop
endfacet
facet normal 0.757454 0.489030 0.432565
 outer loop
  vertex 13.679150 5.988305 63.247307
  vertex 9.641750 12.911665 62.489994
  vertex 9.374209 12.304989 63.644348
 endloop
endfacet
facet normal 0.834414 0.452116 -0.315189
 outer loop
  vertex 9.329735 10.093913 57.622120
  vertex 9.641750 12.911665 62.489994
  vertex 13.679150 5.988305 63.247307
 endloop
endfacet
facet normal -0.407900 0.475967 0.779149
 outer loop
  vertex 6.175643 -4.112017 59.028179
  vertex 1.643890 -5.408892 57.447914
  vertex 1.683254 -5.400298 57.463272
 endloop
endfacet
facet normal 0.403277 -0.719573 -0.565316
 outer loop
  vertex 1.683254 -5.400298 57.463272
  vertex 7.984145 -1.779913 57.349838
  vertex 6.175643 -4.112017 59.028179
 endloop
endfacet
facet normal 0.407222 -0.337386 -0.848729
 outer loop
  vertex 6.175643 -4.112017 59.028179
  vertex 8.402500 -7.788853 61.558239
  vertex 4.992540 -8.911462 60.368393
 endloop
endfacet
facet normal 0.394415 -0.336058 -0.855279
 outer loop
  vertex 1.643890 -5.408892 57.447914
  vertex 6.175643 -4.112017 59.028179
  vertex 4.992540 -8.911462 60.368393
 endloop
endfacet
facet normal -0.404530 0.325767 0.854536
 outer loop
  vertex 1.643890 -5.408892 57.447914
  vertex 4.992540 -8.911462 60.368393
  vertex 1.683254 -5.400298 57.463272
 endloop
endfacet
facet normal -0.238157 0.829748 0.504776
 outer loop
  vertex -6.382320 13.044488 62.410526
  vertex -6.070863 12.339809 63.715820
  vertex 1.655048 14.657516 63.551125
 endloop
endfacet
facet normal -0.238064 0.832665 0.499995
 outer loop
  vertex 1.655048 14.657516 63.551125
  vertex 1.705713 15.693921 61.849274
  vertex -6.382320 13.044488 62.410526
 endloop
endfacet
facet normal -0.266333 0.856366 -0.442384
 outer loop
  vertex 1.655048 14.657516 63.551125
  vertex -6.070863 12.339809 63.715820
  vertex -6.660587 15.381650 69.959244
 endloop
endfacet
facet normal -0.265562 0.857080 -0.441464
 outer loop
  vertex -6.660587 15.381650 69.959244
  vertex 1.655048 17.587370 69.239288
  vertex 1.655048 14.657516 63.551125
 endloop
endfacet
facet normal -0.896620 0.360186 -0.257561
 outer loop
  vertex -6.070863 12.339809 63.715820
  vertex -8.221178 7.861222 64.938408
  vertex -9.876024 8.332230 71.357941
 endloop
endfacet
facet normal -0.897139 0.357808 -0.259066
 outer loop
  vertex -9.876024 8.332230 71.357941
  vertex -6.660587 15.381650 69.959244
  vertex -6.070863 12.339809 63.715820
 endloop
endfacet
facet normal -0.302487 0.820513 -0.485037
 outer loop
  vertex 1.705713 15.693921 61.849274
  vertex 1.604383 11.105964 54.151249
  vertex -6.196243 10.604033 58.166920
 endloop
endfacet
facet normal -0.302434 0.820486 -0.485115
 outer loop
  vertex -6.196243 10.604033 58.166920
  vertex -6.382320 13.044488 62.410526
  vertex 1.705713 15.693921 61.849274
 endloop
endfacet
facet normal -0.375208 0.912081 -0.165308
 outer loop
  vertex -8.221178 7.861222 64.938408
  vertex -13.847712 5.991999 67.395851
  vertex -13.746409 6.666422 70.887032
 endloop
endfacet
facet normal -0.373214 0.913275 -0.163216
 outer loop
  vertex -13.746409 6.666422 70.887032
  vertex -9.876024 8.332230 71.357941
  vertex -8.221178 7.861222 64.938408
 endloop
endfacet
facet normal -0.999170 -0.015014 0.037858
 outer loop
  vertex -13.847712 5.991999 67.395851
  vertex -13.797651 3.151127 67.590393
  vertex -13.640697 3.670470 71.938828
 endloop
endfacet
facet normal -0.999162 -0.023485 0.033529
 outer loop
  vertex -13.640697 3.670470 71.938828
  vertex -13.746409 6.666422 70.887032
  vertex -13.847712 5.991999 67.395851
 endloop
endfacet
facet normal -0.303837 -0.945026 0.120865
 outer loop
  vertex -13.797651 3.151127 67.590393
  vertex -10.038025 1.403879 63.380089
  vertex -9.711267 2.577889 73.380898
 endloop
endfacet
facet normal -0.307735 -0.943387 0.123778
 outer loop
  vertex -9.711267 2.577889 73.380898
  vertex -13.640697 3.670470 71.938828
  vertex -13.797651 3.151127 67.590393
 endloop
endfacet
facet normal -0.896155 0.358311 -0.261762
 outer loop
  vertex -9.876024 8.332230 71.357941
  vertex -12.144221 7.110826 77.451317
  vertex -7.054077 17.382542 74.085335
 endloop
endfacet
facet normal -0.897138 0.357807 -0.259070
 outer loop
  vertex -7.054077 17.382542 74.085335
  vertex -6.660587 15.381650 69.959244
  vertex -9.876024 8.332230 71.357941
 endloop
endfacet
facet normal -0.265768 0.857231 -0.441048
 outer loop
  vertex -6.660587 15.381650 69.959244
  vertex -7.054077 17.382542 74.085335
  vertex 1.655048 20.619299 75.128403
 endloop
endfacet
facet normal -0.265569 0.857163 -0.441299
 outer loop
  vertex 1.655048 20.619299 75.128403
  vertex 1.655048 17.587370 69.239288
  vertex -6.660587 15.381650 69.959244
 endloop
endfacet
facet normal -0.914858 -0.156976 -0.372012
 outer loop
  vertex -9.876024 8.332230 71.357941
  vertex -9.711267 2.577889 73.380898
  vertex -12.144221 7.110826 77.451317
 endloop
endfacet
facet normal -0.316278 -0.914427 -0.252569
 outer loop
  vertex -8.849808 -3.309132 73.746506
  vertex -7.842179 -5.292333 79.664894
  vertex -11.436472 -4.285214 80.519539
 endloop
endfacet
facet normal -0.914858 -0.156976 -0.372012
 outer loop
  vertex -12.144221 7.110826 77.451317
  vertex -9.711267 2.577889 73.380898
  vertex -8.849808 -3.309132 73.746506
 endloop
endfacet
facet normal -0.914858 -0.156976 -0.372012
 outer loop
  vertex -8.849808 -3.309132 73.746506
  vertex -11.436472 -4.285214 80.519539
  vertex -12.144221 7.110826 77.451317
 endloop
endfacet
facet normal -0.246424 0.313284 0.917130
 outer loop
  vertex -9.876024 8.332230 71.357941
  vertex -13.746409 6.666422 70.887032
  vertex -13.640697 3.670470 71.938828
 endloop
endfacet
facet normal -0.248602 0.314901 0.915988
 outer loop
  vertex -13.640697 3.670470 71.938828
  vertex -9.711267 2.577889 73.380898
  vertex -9.876024 8.332230 71.357941
 endloop
endfacet
facet normal -0.435645 0.818262 -0.375048
 outer loop
  vertex -8.221178 7.861222 64.938408
  vertex -10.315123 5.992565 63.293728
  vertex -13.847712 5.991999 67.395851
 endloop
endfacet
facet normal -0.756473 -0.057941 -0.651453
 outer loop
  vertex -13.797651 3.151127 67.590393
  vertex -13.847712 5.991999 67.395851
  vertex -10.315123 5.992565 63.293728
 endloop
endfacet
facet normal -0.756473 -0.057942 -0.651453
 outer loop
  vertex -10.315123 5.992565 63.293728
  vertex -10.038025 1.403879 63.380089
  vertex -13.797651 3.151127 67.590393
 endloop
endfacet
facet normal -0.354395 0.794821 0.492610
 outer loop
  vertex 1.655048 20.619299 75.128403
  vertex -7.054077 17.382542 74.085335
  vertex -6.132289 14.255098 79.794586
 endloop
endfacet
facet normal -0.357369 0.795761 0.488929
 outer loop
  vertex -6.132289 14.255098 79.794586
  vertex 1.655048 17.905359 79.545502
  vertex 1.655048 20.619299 75.128403
 endloop
endfacet
facet normal -0.474093 -0.470253 0.744378
 outer loop
  vertex 1.655048 -8.291543 86.363693
  vertex 1.655048 -1.720946 90.514603
  vertex -5.850293 1.939288 88.046783
 endloop
endfacet
facet normal -0.475754 -0.471199 0.742718
 outer loop
  vertex -5.850293 1.939288 88.046783
  vertex -11.436472 -4.285214 80.519539
  vertex 1.655048 -8.291543 86.363693
 endloop
endfacet
facet normal -0.832909 0.086480 0.546612
 outer loop
  vertex -11.436472 -4.285214 80.519539
  vertex -5.850293 1.939288 88.046783
  vertex -7.943585 8.197083 83.867050
 endloop
endfacet
facet normal -0.840146 0.091741 0.534544
 outer loop
  vertex -7.943585 8.197083 83.867050
  vertex -12.144221 7.110826 77.451317
  vertex -11.436472 -4.285214 80.519539
 endloop
endfacet
facet normal -0.759287 0.503868 0.411825
 outer loop
  vertex -12.144221 7.110826 77.451317
  vertex -7.943585 8.197083 83.867050
  vertex -6.132289 14.255098 79.794586
 endloop
endfacet
facet normal -0.761341 0.508917 0.401700
 outer loop
  vertex -6.132289 14.255098 79.794586
  vertex -7.054077 17.382542 74.085335
  vertex -12.144221 7.110826 77.451317
 endloop
endfacet
facet normal 0.001362 0.065187 0.997872
 outer loop
  vertex -6.132289 14.255098 79.794586
  vertex 1.655048 14.236202 79.785194
  vertex 1.655048 17.905359 79.545502
 endloop
endfacet
facet normal -0.754569 -0.053187 -0.654062
 outer loop
  vertex -10.315123 5.992565 63.293728
  vertex -6.196243 10.604033 58.166920
  vertex -4.633064 -1.813291 57.373276
 endloop
endfacet
facet normal -0.757357 -0.057976 -0.650422
 outer loop
  vertex -4.633064 -1.813291 57.373276
  vertex -10.038025 1.403879 63.380089
  vertex -10.315123 5.992565 63.293728
 endloop
endfacet
facet normal 0.000612 0.559893 0.828565
 outer loop
  vertex -5.850293 1.939288 88.046783
  vertex 1.655048 -1.720946 90.514603
  vertex 1.655048 1.925004 88.050896
 endloop
endfacet
facet normal 0.000606 0.557416 0.830233
 outer loop
  vertex -5.850293 1.939288 88.046783
  vertex 1.655048 1.925004 88.050896
  vertex 1.655048 8.158207 83.865936
 endloop
endfacet
facet normal 0.002348 0.555966 0.831202
 outer loop
  vertex 1.655048 8.158207 83.865936
  vertex -7.943585 8.197083 83.867050
  vertex -5.850293 1.939288 88.046783
 endloop
endfacet
facet normal 0.002354 0.557414 0.830231
 outer loop
  vertex -7.943585 8.197083 83.867050
  vertex 1.655048 8.158207 83.865936
  vertex 1.655048 14.236202 79.785194
 endloop
endfacet
facet normal 0.002354 0.557414 0.830231
 outer loop
  vertex 1.655048 14.236202 79.785194
  vertex -6.132289 14.255098 79.794586
  vertex -7.943585 8.197083 83.867050
 endloop
endfacet
facet normal -0.458236 -0.881507 -0.113864
 outer loop
  vertex -4.614378 -4.385645 67.965363
  vertex -1.758024 -5.830913 67.659119
  vertex -2.051583 -6.195981 71.666779
 endloop
endfacet
facet normal -0.458235 -0.881507 -0.113865
 outer loop
  vertex -2.051583 -6.195981 71.666779
  vertex -4.808199 -4.805314 71.994324
  vertex -4.614378 -4.385645 67.965363
 endloop
endfacet
facet normal -0.340244 -0.935809 -0.092171
 outer loop
  vertex -0.165628 -9.620640 61.969406
  vertex -6.200921 -7.535862 63.081642
  vertex -5.092404 -7.788853 61.558239
 endloop
endfacet
facet normal -0.340244 -0.935809 -0.092172
 outer loop
  vertex -5.092404 -7.788853 61.558239
  vertex -1.682444 -8.911462 60.368393
  vertex -0.165628 -9.620640 61.969406
 endloop
endfacet
facet normal -0.990439 -0.125958 0.056260
 outer loop
  vertex -10.038025 1.403879 63.380089
  vertex -9.403013 -3.711474 63.106770
  vertex -8.849808 -3.309132 73.746506
 endloop
endfacet
facet normal -0.988708 -0.141641 0.048932
 outer loop
  vertex -8.849808 -3.309132 73.746506
  vertex -9.711267 2.577889 73.380898
  vertex -10.038025 1.403879 63.380089
 endloop
endfacet
facet normal -0.757648 -0.059325 -0.649962
 outer loop
  vertex -10.038025 1.403879 63.380089
  vertex -4.633064 -1.813291 57.373276
  vertex -9.403013 -3.711474 63.106770
 endloop
endfacet
facet normal -0.279105 -0.959280 -0.043384
 outer loop
  vertex -11.436472 -4.285214 80.519539
  vertex -7.842179 -5.292333 79.664894
  vertex 1.655048 -8.154501 81.852173
 endloop
endfacet
facet normal -0.280587 -0.959386 -0.029142
 outer loop
  vertex 1.655048 -8.154501 81.852173
  vertex 1.655048 -8.291543 86.363693
  vertex -11.436472 -4.285214 80.519539
 endloop
endfacet
facet normal -0.324390 -0.434146 0.840410
 outer loop
  vertex 1.655048 -8.154501 81.852173
  vertex -7.842179 -5.292333 79.664894
  vertex -7.897387 -7.938830 78.276436
 endloop
endfacet
facet normal -0.323272 -0.441551 0.836976
 outer loop
  vertex -7.897387 -7.938830 78.276436
  vertex 1.655048 -13.248959 79.164566
  vertex 1.655048 -8.154501 81.852173
 endloop
endfacet
facet normal -0.987193 -0.057479 0.148813
 outer loop
  vertex -8.849808 -3.309132 73.746506
  vertex -7.897387 -7.938830 78.276436
  vertex -7.842179 -5.292333 79.664894
 endloop
endfacet
facet normal -0.340244 -0.935809 -0.092171
 outer loop
  vertex -6.200921 -7.535862 63.081642
  vertex -0.165628 -9.620640 61.969406
  vertex -2.084184 -9.194943 64.729546
 endloop
endfacet
facet normal -0.340244 -0.935809 -0.092172
 outer loop
  vertex -2.084184 -9.194943 64.729546
  vertex -6.458794 -7.646394 65.155785
  vertex -6.200921 -7.535862 63.081642
 endloop
endfacet
facet normal -0.487163 -0.871651 0.053815
 outer loop
  vertex 1.656135 -9.125182 74.648453
  vertex -8.849808 -3.309132 73.746506
  vertex -5.355456 -5.280077 73.455536
 endloop
endfacet
facet normal -0.487778 -0.870917 0.059798
 outer loop
  vertex -5.355456 -5.280077 73.455536
  vertex -2.236241 -7.045056 73.193573
  vertex 1.656135 -9.125182 74.648453
 endloop
endfacet
facet normal -0.486630 -0.871569 0.059651
 outer loop
  vertex -6.108419 -5.264313 67.543190
  vertex -5.355456 -5.280077 73.455536
  vertex -8.849808 -3.309132 73.746506
 endloop
endfacet
facet normal -0.487778 -0.870917 0.059799
 outer loop
  vertex 1.656135 -9.125182 74.648453
  vertex -2.236241 -7.045056 73.193573
  vertex -1.995615 -7.593701 67.165810
 endloop
endfacet
facet normal -0.487778 -0.870917 0.059799
 outer loop
  vertex -1.995615 -7.593701 67.165810
  vertex 1.655199 -9.506004 69.094460
  vertex 1.656135 -9.125182 74.648453
 endloop
endfacet
facet normal -0.494135 -0.866959 0.064896
 outer loop
  vertex -6.163439 -5.553811 63.161579
  vertex -6.424287 -5.201035 65.888199
  vertex -9.403013 -3.711474 63.106770
 endloop
endfacet
facet normal -0.031016 -0.265484 0.963616
 outer loop
  vertex -1.995615 -7.593701 67.165810
  vertex -1.758024 -5.830913 67.659119
  vertex -4.614378 -4.385645 67.965363
 endloop
endfacet
facet normal -0.087071 -0.307258 0.947634
 outer loop
  vertex -4.614378 -4.385645 67.965363
  vertex -6.108419 -5.264313 67.543190
  vertex -1.995615 -7.593701 67.165810
 endloop
endfacet
facet normal 0.519243 -0.852243 -0.063793
 outer loop
  vertex -6.108419 -5.264313 67.543190
  vertex -4.614378 -4.385645 67.965363
  vertex -4.808199 -4.805314 71.994324
 endloop
endfacet
facet normal 0.538935 -0.839361 -0.070874
 outer loop
  vertex -4.808199 -4.805314 71.994324
  vertex -5.355456 -5.280077 73.455536
  vertex -6.108419 -5.264313 67.543190
 endloop
endfacet
facet normal -0.447633 -0.787555 -0.423534
 outer loop
  vertex -5.355456 -5.280077 73.455536
  vertex -4.808199 -4.805314 71.994324
  vertex -2.051583 -6.195981 71.666779
 endloop
endfacet
facet normal -0.463695 -0.749308 -0.472784
 outer loop
  vertex -2.051583 -6.195981 71.666779
  vertex -2.236241 -7.045056 73.193573
  vertex -5.355456 -5.280077 73.455536
 endloop
endfacet
facet normal -0.992777 0.101825 -0.063445
 outer loop
  vertex -2.236241 -7.045056 73.193573
  vertex -2.051583 -6.195981 71.666779
  vertex -1.758024 -5.830913 67.659119
 endloop
endfacet
facet normal -0.987586 0.147908 -0.052887
 outer loop
  vertex -1.758024 -5.830913 67.659119
  vertex -1.995615 -7.593701 67.165810
  vertex -2.236241 -7.045056 73.193573
 endloop
endfacet
facet normal -0.487779 -0.870917 0.059798
 outer loop
  vertex -6.424287 -5.201035 65.888199
  vertex -2.071406 -7.682703 65.251312
  vertex -1.995615 -7.593701 67.165810
 endloop
endfacet
facet normal -0.487778 -0.870917 0.059797
 outer loop
  vertex -1.995615 -7.593701 67.165810
  vertex -6.108419 -5.264313 67.543190
  vertex -6.424287 -5.201035 65.888199
 endloop
endfacet
facet normal -0.491058 -0.869024 0.060496
 outer loop
  vertex -9.403013 -3.711474 63.106770
  vertex -6.424287 -5.201035 65.888199
  vertex -6.108419 -5.264313 67.543190
 endloop
endfacet
facet normal -0.488810 -0.870438 0.058331
 outer loop
  vertex -6.108419 -5.264313 67.543190
  vertex -8.849808 -3.309132 73.746506
  vertex -9.403013 -3.711474 63.106770
 endloop
endfacet
facet normal -0.337020 -0.677667 -0.653594
 outer loop
  vertex 1.655048 -13.345902 64.893059
  vertex -2.052893 -11.378540 64.765205
  vertex -0.165628 -9.620640 61.969406
 endloop
endfacet
facet normal -0.338383 -0.677729 -0.652825
 outer loop
  vertex -0.165628 -9.620640 61.969406
  vertex 1.655048 -10.254683 61.683914
  vertex 1.655048 -13.345902 64.893059
 endloop
endfacet
facet normal -0.398953 -0.718470 -0.569770
 outer loop
  vertex -4.633064 -1.813291 57.373276
  vertex -2.864170 -4.109534 59.030220
  vertex -6.163439 -5.553811 63.161579
 endloop
endfacet
facet normal -0.398952 -0.718470 -0.569770
 outer loop
  vertex -6.163439 -5.553811 63.161579
  vertex -9.403013 -3.711474 63.106770
  vertex -4.633064 -1.813291 57.373276
 endloop
endfacet
facet normal -0.822458 -0.021069 -0.568436
 outer loop
  vertex -2.084184 -9.194943 64.729546
  vertex -0.165628 -9.620640 61.969406
  vertex -2.052893 -11.378540 64.765205
 endloop
endfacet
facet normal -0.475190 -0.878564 0.048153
 outer loop
  vertex 1.655048 -13.265862 66.921738
  vertex -1.971822 -11.286172 67.250511
  vertex -2.052893 -11.378540 64.765205
 endloop
endfacet
facet normal -0.469346 -0.882328 0.034812
 outer loop
  vertex -2.052893 -11.378540 64.765205
  vertex 1.655048 -13.345902 64.893059
  vertex 1.655048 -13.265862 66.921738
 endloop
endfacet
facet normal -0.459893 0.017402 0.887804
 outer loop
  vertex 1.655199 -9.506004 69.094460
  vertex -1.995615 -7.593701 67.165810
  vertex -1.971822 -11.286172 67.250511
 endloop
endfacet
facet normal -0.453978 0.002028 0.891011
 outer loop
  vertex -1.971822 -11.286172 67.250511
  vertex 1.655048 -11.480304 69.098877
  vertex 1.655199 -9.506004 69.094460
 endloop
endfacet
facet normal -0.342515 -0.726445 0.595786
 outer loop
  vertex -1.971822 -11.286172 67.250511
  vertex 1.655048 -13.265862 66.921738
  vertex 1.655048 -11.480304 69.098877
 endloop
endfacet
facet normal -0.800219 0.075881 -0.594887
 outer loop
  vertex -2.864170 -4.109534 59.030220
  vertex -5.092404 -7.788853 61.558239
  vertex -6.200921 -7.535862 63.081642
 endloop
endfacet
facet normal -0.787510 0.039696 -0.615022
 outer loop
  vertex -6.200921 -7.535862 63.081642
  vertex -6.163439 -5.553811 63.161579
  vertex -2.864170 -4.109534 59.030220
 endloop
endfacet
facet normal -0.992235 0.023688 -0.122100
 outer loop
  vertex -6.163439 -5.553811 63.161579
  vertex -6.200921 -7.535862 63.081642
  vertex -6.458794 -7.646394 65.155785
 endloop
endfacet
facet normal -0.993923 0.044218 -0.100807
 outer loop
  vertex -6.458794 -7.646394 65.155785
  vertex -6.424287 -5.201035 65.888199
  vertex -6.163439 -5.553811 63.161579
 endloop
endfacet
facet normal -0.008186 -0.286803 0.957955
 outer loop
  vertex -6.424287 -5.201035 65.888199
  vertex -6.458794 -7.646394 65.155785
  vertex -2.084184 -9.194943 64.729546
 endloop
endfacet
facet normal -0.047363 -0.325437 0.944377
 outer loop
  vertex -2.084184 -9.194943 64.729546
  vertex -2.071406 -7.682703 65.251312
  vertex -6.424287 -5.201035 65.888199
 endloop
endfacet
facet normal -0.329293 -0.694098 -0.640151
 outer loop
  vertex -7.897387 -7.938830 78.276436
  vertex -8.849808 -3.309132 73.746506
  vertex 1.656135 -9.125182 74.648453
 endloop
endfacet
facet normal -0.328483 -0.697439 -0.636928
 outer loop
  vertex 1.656135 -9.125182 74.648453
  vertex 1.655048 -13.248959 79.164566
  vertex -7.897387 -7.938830 78.276436
 endloop
endfacet
facet normal -0.999146 -0.010270 0.040032
 outer loop
  vertex -1.995615 -7.593701 67.165810
  vertex -2.071406 -7.682703 65.251312
  vertex -2.052893 -11.378540 64.765205
 endloop
endfacet
facet normal -0.999445 -0.005687 0.032813
 outer loop
  vertex -2.052893 -11.378540 64.765205
  vertex -1.971822 -11.286172 67.250511
  vertex -1.995615 -7.593701 67.165810
 endloop
endfacet
facet normal -0.997931 -0.013273 0.062908
 outer loop
  vertex -2.071406 -7.682703 65.251312
  vertex -2.084184 -9.194943 64.729546
  vertex -2.052893 -11.378540 64.765205
 endloop
endfacet
facet normal 0.033287 -0.655875 -0.754135
 outer loop
  vertex -1.682444 -8.911462 60.368393
  vertex 1.683254 -5.400298 57.463272
  vertex 1.655048 -10.254683 61.683914
 endloop
endfacet
facet normal -0.340324 -0.935788 -0.092086
 outer loop
  vertex -0.165628 -9.620640 61.969406
  vertex -1.682444 -8.911462 60.368393
  vertex 1.655048 -10.254683 61.683914
 endloop
endfacet
facet normal -0.759809 0.478821 0.439796
 outer loop
  vertex -6.070863 12.339809 63.715820
  vertex -6.382320 13.044488 62.410526
  vertex -10.315123 5.992565 63.293728
 endloop
endfacet
facet normal -0.765267 0.483453 0.425018
 outer loop
  vertex -10.315123 5.992565 63.293728
  vertex -8.221178 7.861222 64.938408
  vertex -6.070863 12.339809 63.715820
 endloop
endfacet
facet normal -0.850954 0.438326 -0.289391
 outer loop
  vertex -6.196243 10.604033 58.166920
  vertex -10.315123 5.992565 63.293728
  vertex -6.382320 13.044488 62.410526
 endloop
endfacet
facet normal -0.399992 -0.718614 -0.568859
 outer loop
  vertex -2.864170 -4.109534 59.030220
  vertex -4.633064 -1.813291 57.373276
  vertex 1.683254 -5.400298 57.463272
 endloop
endfacet
facet normal 0.358714 0.144192 0.922243
 outer loop
  vertex 1.683254 -5.400298 57.463272
  vertex 1.677237 -5.389112 57.463863
  vertex -2.864170 -4.109534 59.030220
 endloop
endfacet
facet normal -0.494423 -0.221507 -0.840524
 outer loop
  vertex 1.677237 -5.389112 57.463863
  vertex 1.683254 -5.400298 57.463272
  vertex -1.682444 -8.911462 60.368393
 endloop
endfacet
facet normal -0.407124 -0.336789 -0.849013
 outer loop
  vertex -1.682444 -8.911462 60.368393
  vertex -5.092404 -7.788853 61.558239
  vertex -2.864170 -4.109534 59.030220
 endloop
endfacet
facet normal -0.390192 -0.335020 -0.857619
 outer loop
  vertex 1.677237 -5.389112 57.463863
  vertex -1.682444 -8.911462 60.368393
  vertex -2.864170 -4.109534 59.030220
 endloop
endfacet
endsolid STLEXP Object01